<svg version="1" xmlns="http://www.w3.org/2000/svg" width="682.667" height="682.667" viewBox="0 0 512.000000 512.000000"><path d="M10 15.4c0 5.1.4 8.6 1 8.6s1-3.3 1-7.9c0-4.4-.4-8.3-1-8.6-.6-.4-1 2.5-1 7.9zM29.8 17.5c-.2 7.9 0 10.5 1 10.5.9 0 1.2-2.8 1.2-10.5 0-5.9-.4-10.5-.9-10.5-.6 0-1.1 4.7-1.3 10.5zM57.7 10.2c-.8 1.8-2.6 6.1-4.1 9.5-2.7 6.6-3.1 8.3-1.8 8.3.5 0 2-2.8 3.4-6.3 1.4-3.4 3.3-7.9 4.2-9.9.9-2.2 1.2-3.9.6-4.3-.5-.3-1.6.9-2.3 2.7zM82.4 8.5c-.4 1-2 1.5-5 1.5-3.7 0-4.4.3-4.4 2 0 1.1.5 2 1 2 .6 0 1-.7 1-1.5 0-1.1 1.2-1.5 4.5-1.5 3.8 0 4.5-.3 4.5-2 0-2.4-.8-2.6-1.6-.5zM113 8.3c0 1.3-.9 1.7-3.5 1.7-2.8 0-3.5.4-3.5 2 0 1.1.5 2 1 2 .6 0 1-.7 1-1.5 0-1 1-1.5 2.9-1.5 3.3 0 4.9-1.6 3.2-3.3-.8-.8-1.1-.6-1.1.6zM258.8 17.4c-.2 6.8.1 10.5.7 10.3 1.3-.5 1.9-18.7.6-20-.6-.6-1.1 2.8-1.3 9.7zM281 8.5c0 .8-.9 1.5-1.9 1.5-1.8 0-2 .9-2.3 9-.2 5 0 9 .3 9 .9 0 1.9-6.5 1.9-12.3 0-4 .3-4.7 2-4.7 1.3 0 2-.7 2-2 0-1.1-.4-2-1-2-.5 0-1 .7-1 1.5zM382 17.5c0 6.3.4 10.5 1 10.5s1-4.2 1-10.5S383.6 7 383 7s-1 4.2-1 10.5zM404 7.4c0 .2 2 4.7 4.4 9.9 3 6.5 4.1 9.7 3.3 10.1-.7.2-.2.5 1 .5 2.7.1 2.5-.6-3.6-12.8-3.5-6.9-5.1-9.3-5.1-7.7zM433 8.5c0 .8-.9 1.5-2 1.5-1.8 0-2 .7-2 8.4 0 5.8-.4 8.6-1.2 8.9-.7.3-.3.6 1 .6 2.1.1 2.2-.2 2.2-8.4 0-7.8.2-8.5 2-8.5 1.3 0 2-.7 2-2 0-1.1-.4-2-1-2-.5 0-1 .7-1 1.5zM445.8 17.5c-.2 7.9 0 10.5 1 10.5.9 0 1.2-2.8 1.2-10.5 0-5.9-.4-10.5-.9-10.5-.6 0-1.1 4.7-1.3 10.5zM493.9 8.5c1.4 2.8 9 11.2 9 10 0-.6-2.2-3.5-5-6.5s-4.6-4.6-4-3.5zM506.8 17.5c-.2 7.9 0 10.5 1 10.5.9 0 1.2-2.8 1.2-10.5 0-5.9-.4-10.5-.9-10.5-.6 0-1.1 4.7-1.3 10.5zM45.5 10.1C47.1 15 50 20.4 50 18.5 50 16.3 46.4 8 45.5 8c-.4 0-.3 1 0 2.1zM136.8 11.1c.5 3.2-2 6.9-4.5 6.9-.9 0-.1 1.6 2.1 4.1 1.9 2.3 3.3 4.6 3 5-.3.5.2.9 1.2.9 1.8 0 1.4-.8-3-5.7-1.9-2.3-1.9-2.3.7-4.4 3-2.2 3.7-6.9 1.4-8.8-1.1-.8-1.3-.5-.9 2zM186 8.4c0 1.7 5.3 12.6 6.1 12.6.4 0-.4-2.6-1.8-5.8-2.5-5.6-4.3-8.4-4.3-6.8zM201.5 11.2c1.5 9.3 2.2 15.4 1.8 16-.2.5.1.8.8.8 1.2 0 .8-9.2-.7-16.8-.9-4.2-2.7-4.1-1.9 0zM298.3 15c1.8 3.8 3.4 6.5 3.6 5.9.4-1.4-4.9-12.9-6-12.9-.4 0 .7 3.1 2.4 7zM311.7 13.7c.4 3.2.8 7.7.8 10 0 2.8.4 4.3 1.3 4.3 1.5 0 1.5-1.3 0-11.8-.6-4.5-1.5-8.2-2-8.2-.6 0-.6 2.3-.1 5.7zM370.9 10.5c3.3 4.7 8 10.1 8 9 0-.6-2.2-3.5-5-6.5s-4.2-4.2-3-2.5zM477.1 11.3c3.7 6.6.2 14.4-7.4 16.2l-3.2.8 2.8.4c3.4.5 8.7-2.4 10.4-5.8 2.2-4.3 1.6-8.6-1.7-12.1l-3.1-3.3 2.2 3.8zM154.6 11.1c-2 1.6-2.6 2.9-2.6 5.9 0 2 .6 4.2 1.3 4.8.9.8 1.2 0 1.2-3.6 0-4.1.4-4.8 3.4-6.9 2.7-1.8 3-2.3 1.4-2.3-1.1 0-3.2.9-4.7 2.1zM168.4 11c3.4 5.3.9 13.1-5.1 15.6-4.5 1.9-3.6 3 1.2 1.4 7.1-2.4 9.8-11.4 4.9-16.7-2.2-2.5-2.4-2.5-1-.3zM229.8 10.5c-3.4 1.9-4.6 6.7-2.4 10 2.1 3.2 2.9 3.2 1.4 0-1.5-3.4.5-7.8 4.5-9.8 2.4-1.2 2.7-1.6 1.2-1.6-1.1 0-3.2.6-4.7 1.4zM242.7 10.4c-.3.8-.2 1.8.3 2.1 1.3.8 2.4-1.5 1.2-2.7-.6-.6-1.1-.4-1.5.6zM329.5 11.5c-2.8 2.7-3.3 7.1-1 10.1 1.3 1.8 1.4 1.6.8-1.7-.7-4.6 1-7.7 5-9.4l3.2-1.4-2.8-.1c-1.7 0-3.8 1-5.2 2.5zM343 9.7c0 .6.5 1.5 1 1.8 1.6 1 1.2 8.8-.6 11.4-.9 1.3-3.2 3-5.1 3.8-4.2 1.7-3.9 2.6.6 1.7 7.1-1.4 10.8-11.9 6.1-17.5-1-1.3-1.9-1.9-2-1.2zM464.4 10c-4.6 1.8-5 9.7-.8 13 1.7 1.4 1.8 1.3.6-.2-.7-.9-1.2-3.4-1-5.4.2-3.1 1-4.3 3.7-6.1 2.5-1.7 2.9-2.3 1.5-2.2-1 0-2.9.4-4 .9zM127 12.5c0 1.4.5 2.5 1 2.5.6 0 1-.9 1-1.9 0-1.2.8-2.1 2.3-2.4 1.6-.3 1.3-.5-1-.6-2.9-.1-3.3.2-3.3 2.4zM401.6 14.6c-.8 2.2.1 3.1 1.6 1.6.9-.9.9-1.5.1-2.3-.7-.7-1.2-.5-1.7.7zM368.8 21c-.2 5.1 0 7 1 7 .8 0 1.2-2 1.2-6.4 0-8.9-1.8-9.3-2.2-.6zM494 20.2c0 4.4-.4 6.8-1.2 7.1-.7.3-.3.6 1 .6 2 .1 2.2-.3 2.2-5.7 0-3.1-.5-6.4-1-7.2-.7-1.1-1 .5-1 5.2zM82 16.3c0 1.3-.9 1.7-4.5 1.7-4.3 0-4.5.1-4.5 3 0 1.6.5 3 1 3 .6 0 1-1.1 1-2.5 0-2 .5-2.5 2.4-2.5 1.5 0 2.6.7 2.9 2 .3 1.1.9 2 1.5 2 1.4 0 2.4-6.2 1.2-7.4-.7-.7-1-.4-1 .7zM112.7 17.1c-.3 1.3-.1 1.9.6 1.6 1.5-.5 2.2-3.7.9-3.7-.5 0-1.2.9-1.5 2.1zM184.4 21.4c-.8 4.9-.7 6.6.2 6.6 1.4 0 2.7-9.7 1.5-11.7-.5-.9-1.1 1-1.7 5.1zM195.8 20.4c-2.9 5.9-3.5 8.1-1.8 7.1 1.8-1.1 5.1-8.6 4.8-10.7-.2-1.5-1-.5-3 3.6zM294.7 18c-1.3 7.6-1.4 10.1-.3 9.7 1.3-.4 2.4-8.9 1.5-11.4-.5-1.4-.8-1-1.2 1.7zM305.7 20.4c-2.9 6.3-3.2 7.6-1.8 7.6 1.2 0 5.4-10.6 4.9-12.2-.3-.7-1.7 1.4-3.1 4.6zM244.7 17.7c-.2.5-.7 2.1-1.1 3.6-.4 1.6-2 3.6-3.9 4.7-2.6 1.6-2.8 2-1.1 2 1.1 0 2.8-.6 3.7-1.3 2.2-1.6 5-8.4 3.8-9.2-.5-.3-1.2-.2-1.4.2zM106 21.8c0 2.1-.5 4.3-1.1 4.9-1.5 1.5.8 2.8 2.5 1.4.9-.7 1.6-.7 2.4.1.9.9 1.2.7 1.2-1 0-1.3-.7-2.5-1.5-2.8-.9-.4-1.5-1.9-1.5-3.5s-.4-2.9-1-2.9c-.5 0-1 1.7-1 3.8z"/><path d="M127 22.4c0 3.3-.4 4.6-1.4 4.6-.8 0-2.1.9-2.9 2.1-1.4 2-1.6 2-3.6.3-1.4-1.2-1.9-2.5-1.5-4.1.4-1.4.2-2.3-.5-2.3-.6 0-1.4 1.3-1.7 3-.7 3.4-2.2 4.9-5.5 5.5-1.2.3-2.7.9-3.2 1.4-1.6 1.6 2.1 2.6 3.8 1.1 1.1-.9 1.5-.9 1.6-.1.1.6.2 1.4.3 1.8.1.5 2.5 3 5.3 5.7 3 2.7 6.5 7.3 8 10.5 2.5 5 2.8 6.7 2.8 15.6-.1 8.9-.4 10.6-2.8 15.3-6.2 11.8-15.3 18.1-27.7 19-3.9.2-8.2 0-10.1-.7-3.6-1.2-4.2-1.1-3.4 1.1.4 1.1 1.9 1.3 6.5 1 3.5-.3 6.5 0 7.3.7 1 .8 1.7.7 2.5-.1.9-.9 1.5-.8 2.5.7 1.3 1.7 1.4 1.7 2-.4.3-1.1 1.3-2.1 2.2-2.1 2.4 0 9.4-5.1 14.4-10.5 4.3-4.7 8-11.8 10-19.3 1.3-4.7 2.6-5.9 4.6-4.2 2 1.6 3.5.4 3.5-2.9 0-1.6.7-3.4 1.5-4.1.8-.7 1.5-2 1.5-2.9 0-1 1.4-3 3-4.6 1.7-1.6 3-3.8 3-5 0-1.1.4-2.5.9-3.1.9-.8 1.5-4.4 1.2-7.1-.2-1.8-4.2-3.7-7.3-3.5-1.7.1-3.1-.5-3.7-1.5-1-1.7-1.2-1.7-2.1-.1-1.5 2.4-3 2.3-3-.2 0-2.4-2.8-3.9-3.9-2.1-1 1.5-4.1.3-4.1-1.5 0-.8.5-1.4 1-1.4.6 0 1-2 1-4.4 0-2.5-.4-4.8-1-5.1-.6-.4-1 1.2-1 3.9zM238.8 20.7c.7.3 1.6.2 1.9-.1.4-.3-.2-.6-1.3-.5-1.1 0-1.4.3-.6.6zM90.6 22.7c-1 2.5 1 3.9 2.3 1.5 1-1.9.6-3.2-1-3.2-.4 0-1 .8-1.3 1.7zM397.1 24.5c-1.6 2.8-1.7 3.5-.6 3.5.8 0 2.1-1.3 3-2.9 1.1-2.2 2.4-3.1 4.7-3.4 2.9-.3 2.8-.4-.9-.5-3.7-.2-4.3.1-6.2 3.3zM98.8 24.1c-2.1 1.2-2.4 3.4-.4 2.6.7-.3 1.9 0 2.5.6.8.8 1.1.4 1.1-1.6 0-2.9-.5-3.2-3.2-1.6zM17 25.9c0 .6-1.9 1.2-4.2 1.4-4.1.3-4.1.4 1 .5 4 .2 5.2-.1 5.2-1.3 0-.8-.4-1.5-1-1.5-.5 0-1 .4-1 .9zM82 26c0 .5-2.2 1-4.8 1-4.8 0-4.8 0-4.9 3.5-.1 1.9.3 3.2.8 2.9.5-.3.9-1.7.9-3.1 0-2.3.3-2.5 3.2-1.9 4.1.8 4.3 1.1 2.9 4.2-1.3 3-.9 3.9 1.4 3 1.2-.4 1.4-1.4.9-4.1-.4-2.3-.2-3.5.5-3.5.6 0 1.1-.7 1.1-1.5s-.4-1.5-1-1.5c-.5 0-1 .4-1 1zM100.4 30.1c-.3.6-.1 1.6.5 2.2.8.8 1.1.5 1.1-1.1 0-2.4-.5-2.8-1.6-1.1zM154.3 35.4c.3.7-.1 2.3-.9 3.4-1.5 2.1-.4 3.9 1.6 2.7 1.4-.8 1.3-7.5-.1-7.5-.6 0-.9.6-.6 1.4zM15.1 35.7c.6 1.7 30.3 38.2 30.8 37.7.4-.3-8.5-11.6-22.9-28.9-4.5-5.5-8.1-9.5-7.9-8.8zM58 67.9v33l-2.2.4c-1.7.3-1.4.5 1 .6l3.2.1V69.1c0-20.9-.4-33.2-1-33.6-.7-.4-1 10.6-1 32.4zM192.4 40.5c2.8 6.2 4.5 9.3 4.6 8.2 0-1.2-5.8-13.7-6.4-13.7-.3 0 .5 2.5 1.8 5.5zM327.8 40.6c-.3 5.2-.5 5.9-2.3 5.7-1.1-.1-2.7 0-3.5.3-2.6.9.6 2 4.9 1.6l3.9-.4-.5-5.6c-.8-7.9-2.1-8.7-2.5-1.6zM339.6 36c.4.8 7.3 9.6 15.3 19.4l14.6 18 .3-11.4c.1-6.3 0-12-.2-12.7-.4-.8-1.7-1.3-3.3-1.1-2.7.3-2.8.1-2.5-3.5.2-2.5-.1-3.7-.7-3.2-.6.3-1.1 1.3-1.1 2 0 .8-.8 1.9-1.8 2.4-1.4.7-2.5.4-4.8-1.4-3.6-3-4.4-3.1-4.4-.5 0 1.1-.5 2-1.1 2-.6 0-.9-.9-.6-2 .4-1.4 0-2-1.1-2-.9 0-3.4-1.7-5.6-3.8-2.1-2-3.5-3-3-2.2zM368 57c0 2.9-1.7 3.3-2.2.5-.3-1.3-.3-2.7 0-2.9.9-1 2.2.5 2.2 2.4z"/><path d="M382.8 39.2c-.2 4.5-.3 7.3-.6 40.4l-.2 20.2-2.6.5c-2.2.4-3.7-1-12.7-11.6-5.6-6.6-12.9-15.4-16.2-19.6l-6-7.6L344 81l-.5 19.5h-8.7l.1 12.6c.2 9.5-.2 13.7-1.5 17-.9 2.4-1.9 6-2.3 7.9-2.3 11.1-4.6 15.2-6.8 11.7-.4-.6-1.7-1.2-2.7-1.2-1.1 0-2.1-.5-2.3-1.2-.3-.7.8-1.1 2.9-1 2.9.2 3.3-.1 3.1-2.1-.2-1.3.3-2.2 1.1-2.2s1.6-.6 1.9-1.4c.8-2.1-5.2-5.7-7.4-4.5-2.2 1.1-2.9 1.1-2.9.1 0-.5 1.6-1.4 3.5-2.2 1.9-.8 3.5-2 3.5-2.8 0-.8.9-1.6 2.1-1.9 1.7-.5 2-1.1 1.5-3.5-.3-1.6 0-4.4.8-6.2 1.2-2.9 1.2-3.6-.1-4.9-1.1-1.1-1.2-2-.5-3.4.6-1 1.1-6 1.1-11.1s.4-10.4.7-11.7c.5-2 .1-2.8-2.5-4.2-3.6-2.1-4-3.3-1.1-3.3 2.8 0 3.6-2.7 1.5-5-1.7-1.9-1.7-2.1-.2-3.8 1.9-2.1 2.4-13.2.7-13.2-.6 0-1 2.7-1 6v6h-27v8.5c0 5.4.4 8.5 1.1 8.5.6 0 1-2.5.9-6.8-.1-3.7-.1-7.3-.1-8 .1-.7 1.5-1.2 3.7-1.2h3.7l-.7 4.9c-.5 3.7-.3 5.1.9 6.1.8.7 1.5 2.1 1.5 3.1 0 1.7.8 1.9 8 1.9h8v6c0 4.1-.4 6-1.2 6.1-.7.1-8.9.2-18.3.3-10.1.1-17 .6-17.1 1.1 0 .6-.4 4.4-.8 8.5-1.4 14.7-1.4 20.4.1 22.1 2 2.3-.2 3.8-6.6 4.6-4.7.5-5.1.4-5.1-1.6 0-1.6.6-2.1 2.5-2.1 2.5 0 3.5-2.3 1.5-3.5-1.6-1-1.2-2.2 1-2.8 2.6-.7 2.6-3.7.1-3.7-1.1 0-2.3.4-2.6 1-.3.5-1.4 1-2.4 1-.9 0-4.1 1.8-7.1 4-2.9 2.2-5.6 3.7-5.9 3.4-.3-.3.5-1.3 1.8-2.3 1.9-1.4 2.3-2.5 1.8-4.7-.6-3.2.7-6.4 2.7-6.4.7 0 2.1-.9 3.1-2s2.3-2 3-2c.7 0 1.9-.8 2.8-1.8 1.5-1.7 1.5-1.8-1.2-2-1.6-.1-3.4.5-4.1 1.3-1.5 1.8-6.4 2.1-5.7.2.2-.6.9-1.1 1.5-1 .5.1 1.8-.7 2.7-1.7 1-1.1 2.8-2 4-2 2.5 0 5.5-2.9 5.5-5.2 0-.9 1-2.2 2.2-3 1.3-.9 1.8-1.9 1.4-2.6-1-1.7-6.6 1.7-6.6 4 0 1-.7 1.8-1.7 1.8-.9 0-2.9 1.2-4.4 2.6-1.7 1.6-3.4 2.4-4.3 2.1-2-.8-2.1-2.7-.2-2.7 2.3 0 3.1-2.2 1.3-3.5-1.4-1-1.1-1.5 1.8-3.8 1.9-1.5 4.3-2.7 5.4-2.7 2.3 0 3.7-1.6 1.9-2.3-1.8-.6 2.8-5.5 5.6-6 1.6-.3 1.5-.5-.6-.6-1.6 0-2.8-.5-2.8-1.1 0-1.5 2.3-6.4 3.9-8.3 1.2-1.5 1.3-2 .2-2.6-.9-.6-1.2-2.2-.9-4.5.2-2.3 0-3.6-.8-3.6-.7 0-1.3 2.5-1.6 6.4-1.3 16-12.3 27.8-27.3 29.3-3.1.3-5.1.9-4.5 1.3 1 .6 1.6 6.4.9 8.5-.4 1 .3 1.5 1.9 1.5.5 0 .9-2.1 1-4.6 0-2.5.2-4.7.4-4.8.1-.2 2.2-.6 4.5-1l4.1-.6.2 6.8c.6 19.1-.7 23.1-7.9 25-5.9 1.4-7.2-.7-2.1-3.3 3.2-1.7 3.5-2.2 2-4.5-.8-1.2-1.4-.9-3.7 1.9-2.7 3.5-9.2 7-12.9 7.1-1.2 0-2.8 1-3.7 2.2-.8 1.3-1.9 1.9-2.3 1.5-.5-.5-.1-1.4.9-2.1 3.6-2.7 1.5-4.7-2.3-2.4-1.7 1.1-2.2 1-3-.2-.8-1.2-1.3-1.1-3.9.8-1.7 1.2-4.1 2.2-5.5 2.2-1.4 0-4.1 1.4-6.1 3.1-3 2.7-3.8 2.9-5.1 1.8-1.4-1.1-2.2-.7-6.1 3.4-2.4 2.6-5 4.7-5.7 4.7-.8 0-1.9.7-2.6 1.5-.7.8-1.8 1.5-2.4 1.5-.7 0-2 1.6-2.9 3.5-.9 1.9-2.3 3.5-3.2 3.5-.8 0-2.5 1.6-3.7 3.5-1.4 2.1-3.1 3.5-4.4 3.5-2.2 0-6.4 3.8-6.4 5.8 0 .6-1.1 1.9-2.5 2.8-1.4.9-3.2 3.1-3.9 4.8-.7 1.7-3.6 5.3-6.4 8.1-2.8 2.7-5.2 5.9-5.2 7 0 1.2-1.1 2.5-2.7 3.2-2.2 1.1-2.9 1-4.3-.2-2.2-2-4.4-1.9-3.6.1.3.9.6 2 .6 2.5s.9.9 2 .9c1.5 0 2 .7 2 2.8 0 1.5-.4 3.2-.9 3.8-1.6 1.6-10.1 18.4-10.1 20 0 .8-.7 1.7-1.4 2-2.1.8-4.8 9.7-4.4 14.6.3 4 .1 4.3-2.5 4.6-2.7.3-3.9 3.4-1.7 4.7 1.8 1.1 1.1 2.7-.9 2-3.3-1-3.5 1.5-.2 2.6 1.7.6 3.1 1.8 3.1 2.6 0 1.2-.8 1.4-4.5.9-3.9-.6-4.5-.5-4.5 1.1 0 1-.3 2.8-.6 4-.5 1.8-.2 2.3 1.4 2.3 1.1 0 2.3.7 2.6 1.6.8 2.2.8 2.4-.8 2.4-3.1 0-2.6 2.3 1.1 5.5 2.1 1.9 4.1 3.4 4.6 3.5.4 0 .7-1.5.7-3.4 0-4 1.7-9.5 3.8-11.9 1.6-1.8 3.7-2.4 2.7-.7-.3.5-.1 1 .4 1 .6 0 1.1.6 1.1 1.4 0 1.2 2.9 3.2 3.5 2.4 1.1-1.8 4.2-13.3 3.8-14.3-.2-.8-.6-3.8-.8-6.7-.2-2.9-.5-6.4-.7-7.8-.4-2.8 3.1-17.5 5.6-23.4.9-2.1 1.6-4.7 1.6-5.8 0-1 .4-1.6 1-1.3.5.3 1.5-.7 2.2-2.2.7-1.5 1.5-3 1.8-3.3.3-.3 4.3-6.2 9-13.3 7.3-10.9 9.7-13.7 17.1-19.6 5-4 10.1-9.1 12-12 4.6-7.2 8.2-8.6 16.8-6.7 2.6.6 3.2.5 2.9-.5-.3-.8-1.2-1.3-2.1-1.1-.8.1-1.8-.2-2.2-.7-.3-.6-1.3-.7-2.3-.4-1.5.6-1.5.4-.4-.9.8-1.1 2.5-1.5 4.5-1.3 1.8.2 2.7.1 2-.2-1.9-.7-.3-3.3 2.2-3.3 1.2 0 2.8-.7 3.5-1.5 1.8-2.2 6.1-1.8 9.4.9 2.4 2 2.7 2.6 1.6 4.2-.9 1.5-1 1.5-.6.2.5-1.7-.7-3-3.6-4.1-1-.4-1.8-.2-1.8.4 0 .6.9 1.3 2 1.6 1.1.3 2 1 2 1.5 0 .6-.7.7-1.6.4-1.2-.4-1.5-.2-1 .9.3.8.2 1.5-.3 1.5-1.3 0-3.2-2.6-2.4-3.3.3-.4.2-.7-.3-.7-.6 0-1.5.5-2.2 1.2-.9.9-1.2.9-1.2 0 0-.6-.7-.9-1.5-.6-.8.4-1.5 1-1.5 1.5 0 .4.8.5 1.8.2 1.5-.6 1.5-.5.3 1-.7.9-1.7 1.4-2.2 1.1-.5-.3-.9.2-.9 1.1 0 .8.7 1.8 1.5 2.1 2.3.9 1.8 2.3-.7 1.8-1.5-.4-1.3 0 .8.9 3.2 1.5 5.9 5.5 2.9 4.3-.8-.3-1.5-.1-1.5.4 0 .6.5 1 1.1 1 .6 0 .9.6.6 1.4-.4 1 .5 1.8 2.5 2.5 1.7.6 2.8 1.4 2.5 1.8-.4.3-2.4-.2-4.5-1.1-5.2-2.4-8.5-1.8-8.7 1.4-.2 3.1 2.6 6.2 6.2 6.6 1.5.1 2.9.7 3.1 1.2.1.5 1.5.7 3 .6 1.5-.2 2.2-.2 1.5.2-.7.3-1 1.1-.7 1.9.3.8-.6 2-2.3 2.9-3.2 1.7-2.7 2.1 1.1.7 1.9-.8 3-.6 5 1 2.3 1.8 2.5 1.8 1.9.3-.5-1.4-.3-1.6 1.1-1.1 1 .4 2.7.2 3.8-.4 1.2-.6 1.8-.7 1.4-.1-.8 1.4 3.9 4.3 5.8 3.6.9-.3 1.6-1 1.6-1.6 0-1.1 4.2-.7 5.2.6.4.6 1.2.5 2.1-.2.7-.7 1.7-.9 2-.6.3.4 1.3-.1 2.2-.9.9-1 2.3-1.3 3.3-.9 1.5.6 1.5.7-.2 1-1.8.4-1.8.5.5 1.9 2.2 1.3 2.3 1.3.2.8-1.7-.5-2.2-.3-1.7.8.3.8.1 1.8-.5 2.2-.6.3-1.1 1.1-1.1 1.8 0 .6.7.2 1.5-.9 1-1.3 1.4-1.4 1.5-.5 0 1.1.3 1.1 1.5.1 1.5-1.2 5.3-1 8.9.5 1.4.6 1.7.5 1.2-.4-.6-.9 0-1 2-.5 1.6.4 2.5.3 2.1-.2-1.2-2.1 4.9-.8 6.6 1.3 2.4 3 3.2 2.9 3.2-.2 0-1.4-.6-2.5-1.3-2.5-.7 0-1-.4-.7-1 .4-.6 1.5-.4 3 .6 1.5.9 2.5 1.1 2.9.5.5-.7 1.5-.7 3.2-.1 2.3.9 2.5.8 1.9-1-.7-2.2.9-2.7 3.5-1 1.3.9 1.3 1 0 1-1.2.1-1.2.2.2 1 .9.6 2.4.7 3.4.3 1.6-.6 1.5-.7-.2-2-1.9-1.4-1.9-1.5 0-2.9 3.4-2.5 6.2-1.4 3.4 1.4-1.7 1.7-.3 2.6 2 1.3 1.7-.9 2.1-.7 2.6 1.3.6 2.3 3.6 4.5 3.6 2.6 0-.6.6-1 1.3-1 .6 0-.1 1.2-1.7 2.6-1.6 1.4-3.5 2.3-4.2 2-.8-.3-1.4.1-1.4.9s.6 1.2 1.4.9c.8-.3 1.9.3 2.5 1.5 1.4 2.5 1.4 3.1.1 3.1-.5 0-1-.7-1-1.6 0-1.3-.3-1.4-1.5-.4-.8.7-2.5 1-3.9.6-1.4-.3-2.7-.2-3.1.4-.3.5-3.1.8-6.1.6-3-.2-5.7.1-6 .5-.3.5-1.2.9-2 .9s-1.3-.4-.9-.9c.8-1.4-2.8-3.1-6.2-3.1-2.6.1-2.6.2-1 1.4 1.5 1.1 1.5 1.5.3 1.9-.8.3-1.6.1-1.8-.4-.2-.7-2.6-.3-6.3 1-6 2.1-10.2 2-8.8-.2 1-1.6-2.8 1.2-4.9 3.8-1.1 1.2-1.8 1.5-1.8.7 0-1-.4-1-1.6.2-1.8 1.9-3 2-3.9.5-.5-.6-1.1-.4-1.9.7-1.1 1.4-1.4.9-2.4-4.1-.7-3.2-1.2-7.3-1.2-9.2 0-3-1.9-4.9-2.1-2.1-.4 3.9 0 8.6.9 10.8.8 2.1.6 2.6-1.2 3.4-1.1.5-2.7.8-3.5.7-1.1-.2-1 .1.3 1.4.9.9 1.6 1.8 1.6 2 0 1-3.7-1.1-5.2-3-1.1-1.3-1.7-1.5-1.8-.6 0 .9-.8 1.1-2.7.7-1.6-.4-2.3-.3-1.7.1 1.5 1.1 1.3 4.3-.3 4.3-.7 0-1.3.4-1.3 1 0 .5.6 1 1.3 1 .9 0 .8.3-.2.9-.7.5-1.1 1.3-.8 1.8.3.5-.3.9-1.3.9s-1.6-.4-1.3-.9c.3-.5 1.1-3.2 1.7-6 .9-4 .9-6.3 0-10.2-.6-2.8-1.2-4.4-1.3-3.6-.1 1-1 1.2-3.3.7-2.1-.4-2.8-.3-1.9.3.7.5 1.1 1.3.7 1.9-.3.6 0 1.7.8 2.4 1.2 1.2 1.1 1.7-.2 3.4-1.3 1.6-1.4 1.7-.9.1.4-1.1.1-2-.8-2.3-.8-.4-1.2-1-.9-1.5.7-1.3-2.8-1.1-4.6.2-1.3.9-1.2 1 .3.5s1.7-.2 1.1 1.7c-.4 1.2-.7 2.8-.7 3.5 0 .7-.5 1.1-1.1.9-.6-.3-1-1-.8-1.6.2-1.3-1.5-1.5-2-.2-.4 1-8.8 2.2-8.8 1.2 0-1.2-3.4-.9-4.2.3-.5.8-1.1.7-2-.2-.6-.6-1.9-1.2-2.7-1.2-1.3.1-1.2.3.3 1.5 1.8 1.3 1.6 1.4-1.5 1-1.9-.2-5.2-.8-7.4-1.4-2.2-.5-4.1-.7-4.3-.2-.1.4-1.7.6-3.5.3-3.1-.4-3.1-.4-1.2 1.3 2 1.6 2 1.6-.2 1.2-1.2-.3-3 .1-4.1.9-1.1.7-2.2 1.1-2.5.8-.3-.3-1 .4-1.7 1.5-.8 1.7-.8 2.1.4 2.1.7 0 1.6.7 2 1.5.3.8.1 1.5-.4 1.5-.6 0-1 .7-1 1.5s-.4 1.5-1 1.5c-.5 0-1 .7-1 1.5 0 .9-.6 1.2-1.5.9-.8-.4-1.5-.1-1.5.5 0 1.4 3.7 1.5 4.5.1.3-.6 1.6-.9 2.8-.9 2 .1 2.1.2.2.6-2.9.8-6.4 3.3-4.5 3.3 1.3 0 1.3.1 0 1-.8.5-1.1 1.2-.8 1.6 1.2 1.1-2.2 3.6-4.2 3.1-2.4-.6-2.7.8-.4 1.7.8.3 1.3 1 1 1.4-.3.5.8 1.6 2.4 2.6 3.3 1.9 7 .8 7-2 0-2.2 3.4-3 11.3-2.8 3.9.1 8.3-.2 9.8-.6 3.8-1.1 5.5.2 3.2 2.5-1.9 2-2.1 2 3.2-.1.9-.4 1.5-.1 1.5.7.1.9.5.8 1.5-.5 1.2-1.6 1.7-1.7 3-.6s2.1 1 4.5-.8c1.6-1.2 3.9-2.2 5.2-2.2 2.1 0 2.1 0 .2-1.5-1.1-.8-1.4-1.4-.6-1.5 1.4 0 5.4 2.1 6.3 3.4.8 1 2.2-1.1 1.5-2.2-.3-.5.1-2.1.9-3.6.8-1.4 1-2.4.5-2.1-.5.3-1.1.1-1.4-.4-.3-.5 1.3-1.6 3.6-2.6 3.2-1.2 3.9-1.9 2.7-2.6-1.5-.9-.8-1 8.1-1.4 4.6-.2 5 .2 1.8 1.5-1.9.7-1.6.8 1.7.7 2.2-.1 4 .2 4 .8.1.5.9 2.5 1.9 4.4 1 1.9 1.8 4.9 1.9 6.7l.1 3.3 1.6-2.4 1.6-2.4 1.1 3c.7 1.7.9 3.8.6 4.7-.3 1 .1.8 1.1-.6 2.3-2.9 3.6-2.8 3 .4-.3 1.9-.1 2.4.8 1.8.7-.5 2.1-.8 3-.9 1 0 1.7-.4 1.7-.9-.1-1.5 3-2.8 5.2-2.1 1.7.6 2 .3 1.7-1.2-.2-1.1-1.2-1.8-2.4-1.7-1.6 0-2-.5-1.6-1.8.3-1.5.7-1.6 1.8-.7 1.5 1.2 2.9.5 2.9-1.4 0-1 1.7-1.2 5.5-.8.6 0 1 .6 1 1.1 0 .6-1.1.8-2.5.4-1.4-.3-2.5-.2-2.5.3s.8.9 1.8.9c.9.1 4.7.4 8.4.7 3.7.3 8 .2 9.5-.3 2.2-.6 1.3-.8-3.9-.9-4-.1-6.8-.5-6.8-1.1 0-.6 1.5-1 3.3-.9 1.7 0 6.2-.1 9.8-.4 8.4-.7 9.7.1 5.6 3.4-3.5 2.8-7.2 4.5-6.2 2.9.3-.6-.1-.7-.9-.4-.9.3-1.6 1-1.6 1.4 0 .4-1.6.5-3.6.3-2.1-.2-6 .1-8.8.7-2.8.5-7.1 1.1-9.5 1.2l-4.3.1 2.3 1.8c2.8 2.1 9.4 3.9 14.1 3.9 1.8 0 5.6-1.1 8.3-2.5 2.8-1.3 5.5-2.5 6.1-2.5.7 0 2.5-.7 4-1.5 1.6-.8 3.6-1.5 4.4-1.5.8 0 2.1-.9 2.8-2.1.8-1.2.9-1.8.3-1.4-.6.3-1.1.1-1.1-.4 0-.6 1.5-1.1 3.3-1.1 1.7 0 4.9-.3 7-.6 2.3-.4 3.7-.3 3.7.4 0 .6-1.5 1.2-3.2 1.4l-3.3.3 5.3 2.9c5.4 3.1 6.6 4.9 1.3 2.2-5-2.6-4.9-1.8.4 2 2.8 1.9 4.9 4 4.7 4.5-.1.5.3.9.9.9.8 0 .8.4.1 1.3-.9 1-.6 1.7.8 2.7 2.8 2 2.5 3.6-.2 1.8-1.3-.8-3-1.3-3.8-1.2-.8 0-2.2.2-3.1.2-1.1.1-1.6 1-1.5 2.5.1 1.7.6 2.3 1.9 1.9.9-.2 1.7-.9 1.7-1.4 0-.5-.4-.6-1-.3-.5.3-1 .1-1-.4 0-.6.7-1.1 1.5-1.1.9 0 1.4.9 1.3 2.4-.1 1.3-.7 2.2-1.3 2-.6-.3-2 .5-3 1.6-1.8 2-1.8 2.2-.3 3.1 1.9 1.1 1.3 3.9-.8 3.9-.8 0-1.4.5-1.4 1.1 0 .5.4.8.9.4.6-.3.9.3.9 1.2-.1 1 .2 3.1.5 4.8.5 1.8.4 2.5-.1 1.7-.7-1-1.8-1.1-5.5-.1-2.6.6-4.5 1.5-4.2 1.8.4.7-2.1 1.1-8.2 1.2-1.3.1-2.3.5-2.3 1.1 0 .5-.5.6-1.1.2-.8-.4-.8-.9 0-1.7.6-.6 1.1-1.8 1-2.6 0-1.4-.1-1.4-.6-.1-.8 1.9-2.5 3.4-4.1 3.8-.8.1-1.1-.2-.6-.9.5-.9.2-1-1-.6-1.4.6-1.6.3-1.1-1.3.4-1.1.3-2-.2-1.9-.4.1-2.1.1-3.7 0-2-.1-2.7-.5-2.3-1.6.7-1.7-1.2-3.2-2.2-1.7-.5.8-1.2.5-2.1-.8-.8-1.1-2.4-2-3.6-2-1.2 0-2.7-.7-3.4-1.5-.7-.9-2.1-1.3-3.1-1-1.2.4-1.9.1-1.9-.7 0-.8-2.1-2.1-4.8-2.9-5.4-1.8-8.7-1.3-7.2 1.1 1.4 2.2 1.2 3-.9 3-3.5 0-5.1 1.2-5.1 3.6 0 1.3.4 2.4 1 2.4.5 0 .7.7.4 1.5-.4.8-.2 1.5.4 1.5 1.4 0 2.2-2.5 1.2-4-1.3-2.1-.1-3.1 2.2-1.9 1.5.8 1.9.8 1.4 0-.4-.7.1-1.1 1.3-1.1 2.7 0 5.1 1 5.1 2.2 0 .5-.5.6-1 .3-.6-.3-1.3.1-1.7 1-.3 1 0 2.1.7 2.5 2.3 1.4.3 3.7-3.7 4.2-2.1.3-4 .2-4.3-.2-.3-.4-1.6-1-3-1.4-1.6-.5-2-.4-1.2.2 3.8 2.6-3.9 6.6-12.5 6.5-3.1-.1-5.3.3-5.3.9 0 .6-.7.5-1.7-.3-.9-.8-1.4-.9-1-.3 1.1 1.9-1.6 2.3-5.8.9-3.2-1.2-4.3-1.2-6.6.1-1.5.8-3.1 1.4-3.5 1.4-1.4 0 .5-8.1 2.7-11.2 1.3-1.8 2.5-4.5 2.7-6 .3-2.4 0-2.8-2.2-2.8-1.5 0-2.6.4-2.6 1 0 .5-.7 1-1.5 1s-1.5.4-1.5.9c0 1.5-3.1 2.1-5.2 1-1.6-.9-1.9-.8-1.3.2.6.9.4 1.1-.8.6-.9-.3-1.8.1-2.1 1-.5 1.2-.9 1.3-2.1.3-1.1-.9-1.9-.8-3.7.4-1.7 1.3-1.9 1.6-.6 1.6.9 0 2 .5 2.3 1 .4.6.3 1-.2.9-2.7-.5-4.2.2-3.6 1.7.5 1.4.3 1.5-1.5.5-2.5-1.3-2.7-.9-1 1.9 1.1 1.8 1.4 1.8 3 .3 1-.9 1.8-1.1 1.8-.5 0 1.6-3 3-5.3 2.4-1.6-.4-1.9-.2-1.4 1.3.6 1.5.3 1.7-2.3 1.2-1.7-.4-3-.2-3 .3 0 .6-.7 1-1.5 1s-1.5.5-1.5 1.1c0 .5-.4.8-.9.5-.5-.3-1.1.4-1.4 1.5-.3 1.2-1 1.8-1.6 1.5-.5-.4-1.3-.1-1.6.5-.4.5-1.4.7-2.4.4-3-1.2-5.1-1.4-5.6-.4-.4.5-1.1.9-1.6.9-.6 0-.7-.5-.4-1 .4-.7-.3-.8-2.2-.4-3.6.9-3.8 1.1-2.5 2.7.7.8 1 1.6.7 1.9-.2.2-.7 2.2-1 4.4-.4 2.4-.3 3.4.3 2.6.7-1 1.1-.6 1.5 1.6.4 2.2 1.3 3.1 3.3 3.6 2.1.6 2.4 1 1.4 1.6-.7.4-2 .6-2.8.2-1-.3-1.3 0-1 .9.3.8 1.2 1.3 2.1 1.1 1.5-.2 1.8 2 .4 3.4-.4.4-.7 2.3-.7 4.3 0 2.4-.3 3.1-.9 2.3-.7-1.1-.9-1.1-1.4.1-.8 2 .3 2.9 1.9 1.6.7-.6 1.8-.8 2.4-.4.7.5.5 1.1-.7 2-2.1 1.6-1.6 2.4 1.8 2.7 1.9.2 2.4-.1 2.3-2 0-1.6.2-2 1-1.2 1.8 1.8-.7 4.5-4.2 4.6-1.7.1-2.9-.3-2.6-.7.2-.5-.4-1.7-1.5-2.8-1.1-1.1-2.2-3.4-2.5-5.1-.6-3.9-.8-4.1-2.6-3-1.1.7-1.1 1.4-.3 3.2.6 1.3 1.1 2.7 1.1 3.1 0 .5.9 1.6 1.9 2.4 1.7 1.4 1.7 1.4 0 .9-1.6-.5-1.7-.4-.4 1.5.8 1.1 1.3 2.9 1 3.9-.3 1 .1 3.6.7 5.7 1.9 5.7 12.6 27.3 13.3 26.7.3-.3.3.3 0 1.5s.2 2.7 1.1 3.7c1 .9 2 3 2.3 4.6.4 2.2.8 2.6 1.5 1.6.7-.9.8-.7.4.7-.8 2.6 4.9 11.9 6.6 10.9.7-.5.8-.3.3.5-.9 1.5 7.3 10.3 8.8 9.4.6-.3.7-.1.3.5-.6 1.1 7.9 9.2 14.5 13.8 2.1 1.4 5 2.7 6.5 2.9 2.7.3 5.5 2.9 9.9 9 2.9 4.1 5.2 6.1 12.3 10.8l6.3 4.2-2.3 1.8c-1.3 1-5.9 4.4-10.3 7.6-4.4 3.3-11.3 9.3-15.3 13.5l-7.4 7.6 2.1 2.9c1.2 1.6 2.1 3.4 2.1 4 0 .6.6 1.1 1.3 1.1 2.2 0 9.5-5.7 10.1-7.8 1.2-3.8 7.5-3.5 9 .4.4.9 0 2.7-.9 4-2.3 3.6-1.8 4.1 1.3 1.2l2.7-2.7 3.5 2.2c3.3 2.1 3.5 2.5 3.2 6.9-.2 3.7-1 5.4-3.7 8.4-1.9 2.1-4.2 6-5.1 8.8-.9 2.8-2.5 6.8-3.5 8.8-1.1 2.1-1.9 4.2-1.9 4.8 0 .6 6.5 1 19 1h19l-.2-2.5c-.2-1.7-.8-2.5-2.1-2.5-2.7 0-7.3-2.6-9.6-5.6-1.6-2-2.1-4.1-2.1-8.2 0-5 .3-5.7 4-9.5 3.9-3.9 4.2-4 9.5-3.4 5.1.5 5.6.4 7.9-2.4 1.4-1.6 2.7-2.9 3-2.9.4 0 2.3 1.2 4.4 2.7 3.5 2.7 3.7 3.1 3.4 7.8-.2 3.7 0 4.6.8 3.5.6-.8.9-2.9.8-4.5-.2-3 .5-3.9 7.6-10.4l2.6-2.5 3 2.9c1.6 1.5 2.7 3.2 2.4 3.6-.3.5.2.6 1 .3 2-.8 1.7-1.3-7.9-12.1l-8-9.1-.5 7.1c-.3 4.4-1 7.2-1.7 7.5-1 .3-1.3-1.7-1.3-7.7 0-7.4-.2-8.1-2-8.1-2.5 0-2.7-3-.2-3 2.1-.1-3.6-5.3-11.8-11-5.1-3.5-5.9-3.7-11.2-3.2-3.9.3-5.8.1-5.8-.7 0-.6 1.8-1.1 4.5-1.1 6.5 0 11.8-2.4 22-10 5-3.7 14.2-10.1 20.5-14.2 13.2-8.7 20.5-15.9 30.7-30.3 8.5-12.1 10.7-16.2 12.8-24.6.9-3.5 1.8-6.6 2-6.7.6-.7 7.3 21.2 8.4 27.4 1.4 7.5.1 17.6-3.3 26.6-1.3 3.5-6.9 15.5-12.4 26.8l-9.9 20.5 4 .5c5.6.7 6.2 3 .8 3-3.4 0-4.1.3-4.1 1.9 0 1.5.8 2.1 3.5 2.3 2 .2 3.5.7 3.5 1.3 0 .5-1.5 1.1-3.5 1.3-3.1.3-3.5.6-3.5 3.3 0 2.7.2 2.9 4 2.9 2.2 0 4 .4 4 1 0 .5-2.5 1-5.5 1H325v-3.2c0-3.9-1.1-2.9-3.5 3.2-1.5 3.8-1.8 7-1.6 19.7.3 17.2-.3 18.3-5.7 11.6l-2.9-3.7-2.2 5.8c-1.1 3.1-2.1 6.1-2.1 6.6 0 .6 11.9 1 31.3 1h31.2l2.5-3.7c2.2-3.2 2.6-4.9 3-15.7l.5-12.1 6 .3c7.4.4 11 2.5 13 7.4 1.9 4.8 1.9 5.8-.1 10.8-2 4.9-5.5 7-12.1 7.1-4.1 0-10.7 1.6-7.8 1.8.6.1.4.5-.4 1-1.1.7-.9 1.1.8 2.1 3 1.6 7.6.9 7.5-1.1-.1-1.1.6-1.4 2.7-1.1 1.6.2 2.7.8 2.4 1.2-.3.4.2 1.1 1.1 1.4.9.3 29 .6 62.5.6H512V186.5l-2.1-1.3-2.1-1.3 2.1-2.3c1.3-1.4 2.1-3.5 2.1-5.9 0-3.3-.3-3.7-2.5-3.7-1.8 0-2.8.7-3.5 2.4-.5 1.3-1.2 2.5-1.7 2.7-.4.2-1.7 1.9-2.7 3.8-1.8 3.2-1.8 3.5-.2 4.6.9.7 1.4 1.9 1 2.9-.4 1-.1 1.6.7 1.6.7 0 .9.3.6.6-.4.4-1.4.1-2.2-.6-1.4-1.2-1.5-1-1 1.3.6 2.1.3 2.7-.8 2.7-2.2 0-3.1-1.8-1.7-3.5.9-1.1.6-1.6-1.2-2.7-1.3-.7-3.4-1.3-4.8-1.3-1.7-.1-2.6-.7-2.8-2-.6-3.2-1.6-3.6-5.8-2.7-2.3.5-5 .5-6.6 0-1.9-.7-3.6-.5-6 .8-1.8.9-3 1.3-2.5.9.4-.5-.1-1.7-1-2.7-1.3-1.5-1.4-1.9-.3-1.6.8.2 1.4-.2 1.5-.9 0-.6.4-1.5.9-2 .6-.5.6-.2.1.6-.6 1.1-.4 1.3.9.8 1-.4 2-.7 2.2-.7.2 0 .4-1.8.4-4.1v-4l-3.7.3c-2.1.2-3.7.7-3.5 1.1.2.5-.5 1.6-1.5 2.5-4.5 4.1-6.8 10.2-3.8 10.2.8 0 1.5.6 1.5 1.4 0 .8.3 2.3.6 3.3.5 1.7.5 1.7-.9 0-1.9-2.2-3-2.2-2.2.2.4 1.2 0 2.1-1.1 2.5-2.3.9-3.1-.1-1.8-2.1.8-1.3.5-2.2-1.5-3.9-2.4-2.1-2.7-2.1-4.4-.6-1.7 1.5-1.8 1.4-2.3-.5-.7-2.6-3.6-2-4.9 1-.8 1.6-1.9 2.2-4.4 2.2-1.8 0-3.6-.5-3.8-1.1-.2-.7-1.3-.9-2.4-.7-1.1.3-1.8 1.1-1.5 1.8.2.7-.5 2.1-1.6 3.2-1.5 1.3-2.2 1.4-2.5.6-.3-.9-1.1-.8-2.9.3-2.2 1.5-2.4 1.5-2.4 0 0-.9.8-1.6 1.7-1.6 1.7 0 8.2-6.6 8.3-8.4 0-1.1 6.1-8.9 7.7-9.9.7-.4 1.3-1.6 1.3-2.6s.7-2.5 1.7-3.2c2.8-2.4 4.4-7.9 4.4-15.3 0-4 .7-9.6 1.5-12.6.9-3 2-8.2 2.5-11.5 1.4-9.2 5.1-23.5 6.1-23.5.5 0 2.9-4.3 5.4-9.5L467 83l7.8-.1c4.2-.1 8.3-.1 9 0 .6.1 1.2-.3 1.2-.9 0-.6-3.7-1-10.1-1h-10l-4.5 9.5-4.4 9.5-5.8.2c-3.1 0-6.3.1-6.9.1-.7-.1-1.3.3-1.3.8 0 1.7-.2 2.4-1.2 4.3-.5 1-1 3.4-1 5.2 0 1.9-.4 3.4-.9 3.4s-.9 1-.9 2.2c-.1 1.3-1.2 4.3-2.5 6.8s-2.9 5.7-3.5 7.2c-1.3 3-3 3.7-3 1.3 0-.8-.4-1.5-1-1.5-.5 0-1-.7-1-1.6 0-.8.4-1.3.9-1 1.5.9 4.1-.5 4.1-2.2 0-.8.8-2.4 1.7-3.4 1.2-1.3 1.3-2.2.6-2.9-1.5-1.5-3.3-.3-3.3 2 0 2.4-2.8 4.7-5.1 4.3-1.3-.2-2 .5-2.5 2.2-.6 2.6-1.8 3.3-2.8 1.8-.6-1 1.4-3.4 4.6-5.5 1.6-.9 3.4-3.3 4.2-5.2 1.2-2.9 2-3.5 4.4-3.5 3.4 0 4.3-.7 3.5-2.6-.6-1.7-3-1.8-3.6-.2-.3 1-.7 1-1.9 0-1.4-1.1-1.8-1-3 .7-.8 1.1-2.5 1.9-3.8 1.8-1.4 0-3.4.3-4.5.7-1.6.6-1.5.4.5-1.3 1.4-1.1 3.6-2.1 4.8-2.1 1.5 0 2.6-.7 2.9-1.8.3-1.4 1.1-1.8 2.8-1.5 3.1.6 6.5-1.3 6.5-3.7 0-2.3-1.2-2.5-4.1-.8-1.7 1.1-2.2 1-3-.5-.6-.9-1.7-1.7-2.4-1.7-2.1 0-1.8-1.7.4-3 2.6-1.4 2.8-1.3 3.4 1.2.5 1.8.8 1.9 2.1.8.9-.7 1.6-2.1 1.6-3.2 0-1 .7-2.1 1.5-2.5 2.4-.9 3 .5 1.2 2.5-2.1 2.3-2.1 3.2-.2 3.2.8 0 1.9-.9 2.5-1.9 1.3-2.6 1.3-9.1-.1-9.1-.7 0-.6-.8.3-2.3 3.8-6 5.4-19.4 3.3-27.7-1.7-6.3-5.8-14.1-9.1-17l-2.8-2.5 2.7 3.4c11.4 14 10.7 37.1-1.5 48.8-6.3 6.1-10.9 7.3-28.3 7.7l-15.5.2v-7.8c0-6.2-.3-7.8-1.5-7.8-1.9 0-3-4.3-1.6-6.7.9-1.6 1-1.5 1.1.9 0 1.6.5 2.8 1 2.8 1.7 0 1.2-8.7-.6-9.4-.9-.3-2-.4-2.5 0-.5.3-.9-1.3-.9-3.6 0-3.4.4-4.2 2.6-5 3.3-1.3 3.1-5.7-.2-5.2-2.4.3-2.3 1.2-2.3-13.5 0-5.3-.4-9.4-1.1-9.8-.6-.4-1.1 1-1.2 3.7zM362 90.1c0 .6-.4.7-1 .4-.5-.3-1-1.1-1-1.6 0-.6.5-.7 1-.4.6.3 1 1.1 1 1.6zm1.6 5.6c.3 1 1 2.6 1.5 3.5.7 1.4.5 1.8-.7 1.8-.9 0-1.4.6-1.2 1.2.3.7 1.5 4.5 2.8 8.4 2.3 7.1 2.3 7.2.4 9.7-1.1 1.5-2.9 2.7-4.1 2.7-2.2 0-3.1 1.9-1.6 3.4.4.4.8 3.1.9 5.9 0 2.9.4 7.7.8 10.7 1 7.9-.9 4.2-2.3-4.5-1.3-8.2-2-20.5-1.1-20.5.3 0 1.1.5 1.7 1.1 1.2 1.2 5.3-.8 5.3-2.6-.1-2.1-2.9-4.7-4.7-4.2-1 .3-2.8.8-4 1.2-1.7.5-2.3.2-2.3-.9 0-.9.8-1.6 1.8-1.6.9 0 2.6-.7 3.6-1.5 1.7-1.3 1.8-1.8.6-3.9-.7-1.4-1-3.3-.8-4.4.3-1.1.1-2.7-.4-3.6-.5-.9-.6-2.1-.3-2.6 1-1.6 3.5-1.1 4.1.7zM422 103c-.6 1.1-1.5 2-2.1 2-.6 0-.6-.7.1-2 .6-1.1 1.5-2 2.1-2 .6 0 .6.7-.1 2zm-123.6 2.2c-.3 1.8-.9 4.5-1.4 5.9-.4 1.4-.4 3.2 0 4 .5.7.4 2.1-.1 3-.5 1-.9 2.9-.9 4.3s-.5 2.6-1.1 2.6c-1 0-1.1-20.3-.1-22.3.2-.4 1.2-.7 2.2-.7 1.6 0 1.9.5 1.4 3.2zm7.1-1c-.4 1.3-1.1 5-1.5 8.3-.5 3.3-1.4 8.4-2 11.4-.8 4.2-.7 6 .4 8.1 1.3 2.7 1.2 2.8-2.4 4.9-4 2.3-7 2.7-7 1.1 0-.6.6-1 1.3-1 4-.1 5.2-4.3 6.2-23.4.3-5.4.8-10.3 1.1-10.7.3-.5 1.4-.9 2.6-.9 1.7 0 1.9.4 1.3 2.2zm5.3.2c.4 2.1-1.7 7.6-2.9 7.6s-1.1-2.7.1-3.5c.5-.3.7-2 .3-3.7-.5-2.4-.3-3 .8-2.6.8.3 1.6 1.3 1.7 2.2zm33.2 1.2c0 1.9-1.6 1.8-2.4-.2-1.1-2.7-.7-3.7.9-2.4.8.7 1.5 1.9 1.5 2.6zm58-3.2c0 .3-.4.8-1 1.1-.5.3-1 .1-1-.4 0-.6.5-1.1 1-1.1.6 0 1 .2 1 .4zm9.4 2.1c-.4.8-1 1.5-1.5 1.5-.4 0-.6-.7-.3-1.5.4-.8 1-1.5 1.5-1.5.4 0 .6.7.3 1.5zm-67.4 9.7v3.3l-1.5-2.9c-1.8-3.5-1.8-3.6 0-3.6 1 0 1.5 1 1.5 3.2zm-35 5.2c-1.1 4.8-2.5 6.5-4.2 4.8-.9-.9-.8-1.6.5-3 .9-1 1.7-2.8 1.7-3.9 0-2.3 1.1-3.6 2.1-2.6.5.5.4 2.5-.1 4.7zm11.5-2.4c-.3.5-1 1-1.6 1-.5 0-.9-.5-.9-1 0-.6.7-1 1.6-1 .8 0 1.2.4.9 1zm24.1 2.4c1.5 1.6 1.9 5.6.5 5.6-1.3 0-4.3-4.9-3.6-6 .8-1.3 1.4-1.3 3.1.4zM326 124c0 1.2-.8 1.2-3.5 0-1.8-.8-1.7-.9.8-.9 1.5-.1 2.7.3 2.7.9zm13 1.6c0 .8-.5 1.2-1 .9-.6-.4-.8-1.1-.5-1.6.9-1.4 1.5-1.1 1.5.7zm27 1c0 .8-.4 1.2-1 .9-.5-.3-1-1-1-1.6 0-.5.5-.9 1-.9.6 0 1 .7 1 1.6zm-20.6 3c-.4 1.4-.2 2.4.5 2.4.6 0 1.1.7 1.1 1.5 0 1.7-7.5 16.4-9.2 18-1.2 1.1-1.1.9 1.5-4.8 4-8.7 4.7-10.9 4.1-13.2-.8-3.1.3-7.8 1.6-7 .6.4.7 1.7.4 3.1zm26.2-1.1c.3 1.4.2 3.1-.4 3.8-.7.8-.6 1.8.4 3.1.8 1.1 1.4 3.4 1.4 5.2 0 1.8.5 3.6 1 3.9 1.3.8 1.3 6.2 0 7-2 1.3-3.7-1.5-4.4-7.1-.3-3.1-1.1-6.5-1.7-7.6-.8-1.4-.8-2.3 0-3.1.6-.6 1.1-2.6 1.1-4.4 0-3.9 1.7-4.4 2.6-.8zm-66 1.2c-1 1-1.9-.5-1-1.8.6-1.1.8-1.1 1.2 0 .2.7.1 1.5-.2 1.8zM278 131c0 1.2-4 3.4-4.7 2.6-.9-.8 1.7-3.6 3.3-3.6.8 0 1.4.4 1.4 1zm157.1 3.3c-.8.8-1.1.7-1.1-.4 0-2 1.3-3.4 1.8-1.9.3.7-.1 1.7-.7 2.3zm-6.2 1.9c-.9 1.6-1.4 1.9-1.7.9-.2-.7.2-1.7.9-2.2 2-1.3 2.1-1.1.8 1.3zm-44.9.3c.6.8.8 2 .4 2.6-.5.9-1.1.7-2.1-.6-2.3-3.3-.9-5.1 1.7-2zm56 .9c0 .2-.7.9-1.5 1.6-1.2 1-1.5 1-1.5-.4 0-.9.7-1.6 1.5-1.6s1.5.2 1.5.4zm-6.2 1.8c-.3.7-1.3 1.5-2.3 1.6-1.5.4-1.6.2-.4-1.2 1.7-1.9 3.2-2.1 2.7-.4zm-201.4 2.9c-.3.5-1 .6-1.6.3-.8-.5-.9-.1-.4 1.1.7 1.8.6 1.8-1.4 0s-2-2-.3-2.6c2.2-.8 4.5 0 3.7 1.2zm56.1 4.2c.4-.5.5-.2.1.5s-1.3.9-1.9.6c-2.3-1.3-4.7-3.7-4.7-4.7 0-.6 1.3.1 2.8 1.6 1.6 1.5 3.2 2.4 3.7 2zM255 145c0 .5-.2 1-.4 1-.3 0-.8-.5-1.1-1-.3-.6-.1-1 .4-1 .6 0 1.1.4 1.1 1zm41.1 1.7c1.3 1.6 1.2 1.7-.3.4-1.7-1.3-2.2-2.1-1.4-2.1.2 0 1 .8 1.7 1.7zM345 150c-.6 1.2-1.4 1.9-1.8 1.6-.3-.4 0-1.2.6-1.8.7-.7 1.3-2.1 1.3-3.3.1-1.6.2-1.6.6-.3.2.9-.1 2.7-.7 3.8zm41-2.9c0 .5-.4.9-1 .9-.5 0-1-.7-1-1.6 0-.8.5-1.2 1-.9.6.3 1 1 1 1.6zm-52 2.9c0 .5-.7 1-1.5 1s-1.5-.5-1.5-1c0-.6.7-1 1.5-1s1.5.4 1.5 1zm29.7 6.6c-1.1 1.1-2.7-.7-2.7-3 0-3.6 1.4-4 2.4-.7.5 1.7.6 3.4.3 3.7zM384 151c0 .5-.7 1-1.5 1s-1.5-.5-1.5-1c0-.6.7-1 1.5-1s1.5.4 1.5 1zm53.4 4.5c-1.9 2.9-3.1 2.8-1.5-.2.5-1 1.3-2.7 1.7-3.8.6-1.7.8-1.8 1.1-.3.2.9-.3 2.8-1.3 4.3zm-181.7-3.9c-.3.3-1.2.4-1.9.1-.8-.3-.5-.6.6-.6 1.1-.1 1.7.2 1.3.5zm136.3 4.9c0 2.5-.4 4.5-1 4.5-1 0-1.5-2.5-1-4.5.2-.6.2-1.8.2-2.8 0-.9.3-1.7.9-1.7.5 0 .9 2 .9 4.5zm-161-2.1c0 .2-.9.6-2 .9-1.1.3-1.8.1-1.4-.4.5-.9 3.4-1.3 3.4-.5zm110.2 2.8c-.7.7-1.2.8-1.2.2 0-.6.3-1.4.7-1.7.3-.4.9-.5 1.2-.2.2.3-.1 1.1-.7 1.7zm-5.1-.2c1 .6 1.9 1.5 1.9 2 0 1.4-3.4 1.2-4.8-.2-2.6-2.6-.7-3.7 2.9-1.8zm-97.6 2c.8 1.3-.5 1.3-2.5 0-1.3-.8-1.3-1 .2-1 .9 0 2 .4 2.3 1zm6.2 2.2c-.3.7-.5.2-.5-1.2s.2-1.9.5-1.3c.2.7.2 1.9 0 2.5zm118.5 3.5c.3 2.8-.1 4.6-1.6 6.8-1.2 1.6-2.2 3.2-2.4 3.4-.1.3-.7 0-1.3-.6-.8-.8-.4-1.7 1.1-3.1 1.7-1.6 2.1-2.7 1.5-5.1-.3-1.7-.4-3.5 0-4.1 1.2-2 2.3-.9 2.7 2.7zM231 163.5c0 .8-.2 1.5-.4 1.5s-.6-.7-1-1.5c-.3-.8-.1-1.5.4-1.5.6 0 1 .7 1 1.5zm-7.4 4.3c-.4.3-1.4-.2-2.4-1.2-1.6-1.8-1.6-1.8.6-.6 1.3.6 2.1 1.4 1.8 1.8zm100.7 3.7c-.3.9-.8 1.4-1 1.1-.3-.3-.2-.9.2-1.5.9-1.6 1.5-1.3.8.4zm69.2 4.4c.7 1.2-1.7 10.1-2.7 10.1-1.6 0-2.1-3.3-.9-5.2.7-1.1.9-2.8.6-3.9-.4-1.3-.2-1.9.9-1.9.8 0 1.7.4 2.1.9zm-65.5 1.2c0 .5-.4.8-.9.4-1.1-.6-2.6 3.3-1.7 4.3.4.3 1.9.6 3.3.7 1.5 0 2.8.6 3.1 1.4.3 1-.2 1.2-2.2.7-2.5-.6-3.4 1-1.3 2.5.5.3.1.9-.8 1.2-.9.4-1.3.3-1-.2.3-.5 0-1.3-.6-1.7-1.3-.8-2.9 1.3-2.9 4.1 0 2-4.5 4.9-6.1 3.9-1.5-.9-1-2.6.6-2 .9.3 1.5 0 1.5-1s-.6-1.4-1.5-1c-.8.3-1.5.1-1.5-.5s-.5-.7-1.1-.3c-.7.4-1 .1-.7-.7.3-.8 1.3-1.4 2.3-1.4 1 0 2-.6 2.3-1.4.3-.8 0-1.1-.7-.7-.7.5-1.1-.3-1.1-2.3 0-2.1.5-3.1 1.5-3.1.8 0 2.3-.9 3.2-2 1.8-2.1 6.3-2.8 6.3-.9zm-99 3.9c.9.6 1.7.5 2.2-.3.5-.8.8-.6.8.5s-.8 1.8-2 1.8c-1.1 0-2-.5-2-1.1 0-.5-.4-.7-1-.4-.5.3-1 .1-1-.4 0-1.3 1-1.4 3-.1zm19.8 2c-.7 1.1-1.6 2-2.1 2-.4 0-.3-.9.3-2s1.5-2 2-2c.6 0 .5.9-.2 2zm50.2-1c0 .5-.5 1-1.1 1-.5 0-.7-.5-.4-1 .3-.6.8-1 1.1-1 .2 0 .4.4.4 1zm-22.7 2.9c-.6.3-.9 1.4-.8 2.3.2 1.1-.2 1.5-1.1 1.1-.8-.3-1.4-.9-1.4-1.4 0-.5-.9-.9-2-.9-2 0-2.6-1.1-1.4-2.3.4-.3 1.3.1 2.1.9 1.4 1.3 1.7 1.3 3.1-.7 1.1-1.6 1.7-1.9 2-1 .2.7 0 1.6-.5 2zm73.5 1c-.6.2-.6.6-.1 1 1.3.9 5.6 7.2 5.2 7.6-.2.2-1.5-.5-2.8-1.6-1.3-1.1-2.1-2.2-1.7-2.6.3-.3-.3-1.2-1.3-1.9-1.3-.9-1.7-2.1-1.3-3.9.4-2.4.5-2.4 1.8-.8.8 1.2.9 1.9.2 2.2zM241 185c0 .5-.5 1-1.1 1-.5 0-.7-.5-.4-1 .3-.6.8-1 1.1-1 .2 0 .4.4.4 1zm99 6.1c0 .4-1.3-.5-3-1.9-1.6-1.5-3-3.1-3-3.6s1.4.3 3 1.9c1.7 1.6 3 3.2 3 3.6zm-7.5-.1c.3.5-.1 1-.9 1-.9 0-1.6-.5-1.6-1 0-.6.4-1 .9-1 .6 0 1.3.4 1.6 1zm-3.8 1.4c-.3.8.1 1.7.9 2 .8.3 1.4.1 1.4-.4 0-.6.4-1 1-1s.6 1-.1 2.7c-.5 1.4-.7 4-.3 5.7 1.3 5.5 1.2 6.7-.3 5.5-1.6-1.4-1.7-3.3-.1-2.3.7.4.8.3.4-.4-1.4-2.2-2.4-1.2-2.4 2.3 0 3.1.3 3.6 2.2 3.3 1.5-.2 2.2.3 2.4 1.9.3 1.8 0 2.2-1.5 1.6-1-.4-2.1-1-2.4-1.5-.9-1.3-4.1.3-3.5 1.7.2.7-.9 2.5-2.5 4.1-2.2 2.1-3.2 2.5-4 1.7-.9-.9-.4-2 1.7-4.2 1.6-1.7 2.9-3.4 2.9-3.9 0-.4.4-1.3.8-2 .5-.7.2-1.9-.7-2.8-1.8-1.7-2.1-2.8-.7-1.9.5.3 1.2.1 1.6-.5 1.2-1.9-2.7-2.4-4.1-.5-1.3 1.7-1.4 1.7-1.5.2-.1-.9-.3-2.2-.4-2.7-.1-.6-.3-1.3-.4-1.6 0-.4-.7-.1-1.5.5-1.1.9-1.6.9-2.2 0-.5-.8-.3-.9.5-.5.8.5 1.4 0 1.8-1.3.4-1.6 1.1-2 2.4-1.6 1.4.5 1.7.2 1.3-.9-.7-1.9.7-2.1 2.5-.4 1 1.1 1.1 1 .5-.5-.5-1.3-.2-1.6 1-1.1 1 .4 1.8 0 2.2-1 .3-.9.8-1.6 1.1-1.6.3 0 .3.6 0 1.4zm22.8 5.7c.1 1-.4 1.9-1 1.9-.7 0-1.2-1.2-1.1-2.8 0-1.6-.5-2.6-1.1-2.5-.8.2-1-.4-.6-1.4.6-1.4.8-1.4 2.2.6.8 1.3 1.5 3.2 1.6 4.2zM340 195c0 .5-.2 1-.4 1-.3 0-.8-.5-1.1-1-.3-.6-.1-1 .4-1 .6 0 1.1.4 1.1 1zm98.3 2.6c.9.9-2.6 4.4-4.5 4.4-.9 0-2.2.9-2.7 1.9-.8 1.5-.7 2 .7 2.6 1.5.6 1.3.9-1 2.1-2.8 1.4-4.4 4.6-3.3 6.4 1.4 2.3-4.1.8-6.2-1.8-1.8-2.1-2.4-2.4-3.2-1.3-.5.7-1.5 1-2.2.7-.8-.4-.3.2 1 1.4l2.5 2.1-2.7-.6c-1.5-.4-2.7-.3-2.7.1 0 2.2 1.3 5.4 2.2 5.4.5 0 .6-.4.3-1s.1-.7.9-.4c.9.3 1.6 1.1 1.6 1.6 0 .6.7.8 1.5.4.8-.3 1.5 0 1.5.6 0 .7-1.4.8-4.1.4-3.5-.6-4-.4-3.6.9.4.8.1 1.5-.5 1.5s-.8-1.1-.4-3.1c.5-2.9.4-3-1.1-1.8-1.1 1-1.4 1-.9.1.4-.6.2-1.2-.3-1.2-.6 0-1.1.7-1.1 1.6 0 .8-.5 1.2-1.1.8-.8-.4-.8-.9 0-1.7 3-3-1.1-5.8-4.9-3.5-1.5.9-2 2-1.7 3.6.4 2 .1 2.3-1.8 1.9-2-.3-2.2-.1-1.2 1.4.6 1 1.5 1.6 1.9 1.3.4-.3.5.1.3.8-.3.8-1.5 1.4-2.6 1.5-1.8.2-1.9 0-.7-1.4.8-1.1.9-1.4.1-1-.9.6-1.2-.8-1.2-5.2 0-3.3-.2-6.9-.5-7.9-1-3 5.1-9 9.7-9.7 2.1-.3 3.7-.1 3.7.5s.7 1 1.5 1 1.5-.5 1.5-1c0-.6.7-1 1.6-1 1 0 1.4-.6 1-1.5-.6-1.7 2.9-2.2 3.9-.5.5.8 1.1.8 1.9.1.7-.6 1.5-.8 1.9-.5.3.3 3.1.7 6.2.8 3.1.2 5.1 0 4.4-.5-.8-.5-.6-.8.7-1.2 2.9-.7 3-.7 3.7-.1zm-86.3 5.5c0 .6-.4.7-1 .4-.5-.3-1-1.1-1-1.6 0-.6.5-.7 1-.4.6.3 1 1.1 1 1.6zm-75.2.7c1.1.7-.3 1.2-11.3 3.8-1.7.5-1.6.2.5-1.5 1.5-1.2 3.3-1.8 4.6-1.5 1.2.3 2.5.1 2.8-.5.8-1.3 1.6-1.4 3.4-.3zm161.2 2.3c0 .5-.9.9-2 .9-2.2 0-2.7-1.6-.7-2.3 1.5-.5 2.7.1 2.7 1.4zm-87.5 1.5c1.1 1.7 1.3 2.5.4 2.2-1.6-.5-4.4-4.8-3.1-4.8.5 0 1.7 1.2 2.7 2.6zm-45.1.3c1.7 1.9 1.7 1.9-.2 1.4-1.2-.3-2.3-1.1-2.6-1.9-.8-2 .8-1.7 2.8.5zM302 210c0 .5.6.7 1.4.4.8-.3 1.7-.1 2 .4 1 1.7-2.3 2.2-3.9.6-1.8-1.8-1.9-2.4-.5-2.4.6 0 1 .4 1 1zm136.2 1.4c.6 2.8-1.3 2.5-4.4-.6-1.7-1.7-1.7-1.8 1.1-1.8 2.2 0 3 .5 3.3 2.4zm-205.8 2.4c-1.6 1.6-2.7 1.1-3-1.4-.2-1 .3-1.4 1.2-1 .8.3 1.4 0 1.4-.7 0-.8.3-.7.9.2.6.9.4 1.9-.5 2.9zm78.3-3.2c-.3.3-1.2.4-1.9.1-.8-.3-.5-.6.6-.6 1.1-.1 1.7.2 1.3.5zM214 212c0 .5-.2 1-.4 1-.3 0-.8-.5-1.1-1-.3-.6-.1-1 .4-1 .6 0 1.1.4 1.1 1zm139.3.2c.2.7.2 2.1-.1 3.1-.4 1.5-.7 1.4-1.8-.9-1.7-3.3-1.7-3.4 0-3.4.8 0 1.6.6 1.9 1.2zm-56 1.7c-.6 2.3 1.3 3.7 3.1 2.2 1-.9 1.5-.8 2 .4.9 2.4-2.2 3-4.4 1-1.7-1.5-2.4-1.6-4.6-.7-3.1 1.5-3.4 1.5-3.4.2 0-.6.7-1 1.5-1s1.5-.5 1.5-1.1c0-.6.6-.9 1.4-.6.8.3 1.7-.1 2-.9.8-2.1 1.5-1.7.9.5zM332 215c0 .5-.5 1-1.1 1-.5 0-.7-.5-.4-1 .3-.6.8-1 1.1-1 .2 0 .4.4.4 1zm-44 1c-.8.5-1.9 1-2.5 1-.5 0-.3-.5.5-1s2-1 2.5-1c.6 0 .3.5-.5 1zm-4.5 1c-.3.5-1 1-1.6 1-.5 0-.9-.5-.9-1 0-.6.7-1 1.6-1 .8 0 1.2.4.9 1zm150 0c.3.5-.3 1-1.4 1-1.2 0-2.1-.5-2.1-1 0-.6.6-1 1.4-1 .8 0 1.8.4 2.1 1zm-97.5 3.5c0 1.7-.4 2.3-1.4 1.9-1.1-.4-1.4-1.9-.7-4.2.1-.1.6-.2 1.1-.2.6 0 1 1.1 1 2.5zm-152-.8c0 .5 2.4.8 5.2.8 4 0 5.3.4 5.6 1.6.3 1.6-1.1 2-12.8 3.4-1.9.2-5 .6-6.8.9-3.1.5-3.2.4-2-1.7.7-1.2 1.2-2.7 1.3-3.2 0-.6 1.7-1 3.8-1 2 0 3.7-.3 3.7-.8 0-.4.5-.7 1-.7.6 0 1 .3 1 .7zm123.3 0c-.7.2-1.9.2-2.5 0-.7-.3-.2-.5 1.2-.5s1.9.2 1.3.5zm-107.6 3.4c-1.4.8-2.2.8-3 0-.8-.8-.3-1.1 1.9-1.1 2.5.1 2.7.2 1.1 1.1zm82.3-.3c0 .4-1.2.9-2.7 1-2.2.1-2.4 0-1.3-.8 1.8-1.2 4-1.3 4-.2zm124.7-.2c-.3.3-1.2.4-1.9.1-.8-.3-.5-.6.6-.6 1.1-.1 1.7.2 1.3.5zm-72.7 2.5c0 .5-.7.9-1.5.9-.9 0-1.2-.6-.9-1.5.6-1.5 2.4-1.1 2.4.6zm71-.1c0 .5-.2 1-.4 1-.3 0-.8-.5-1.1-1-.3-.6-.1-1 .4-1 .6 0 1.1.4 1.1 1zm-211 2.6c0 .2-1.9.3-4.2.3-3.9-.1-4.1-.2-1.3-.8 2.8-.7 5.5-.4 5.5.5zm128.7 1.1c-.4.3-2.2.8-3.9 1-2.4.2-2.9 0-1.8-.7 1.7-1.1 6.7-1.4 5.7-.3zm-21.1 5.9c-2.5 1.8-3.7 1.8-3 0 .6-1.5 3.4-2.6 4.4-1.8.3.2-.4 1-1.4 1.8zm-19.1 7.4c-.3.5-3 .9-5.8.8l-5.2-.1 5.5-.7c3-.4 5.6-.7 5.8-.8.2-.1 0 .2-.3.8zm122 4c0 1.5-4 1.8-7.4.5-1.3-.5-1.4-.7-.1-1.6 2.3-1.4 7.5-.7 7.5 1.1zm6 0c-.3.5-1.2 1-1.8 1-.7 0-.6-.4.3-1 1.9-1.2 2.3-1.2 1.5 0zm-12.1 5.1c-.3.5-.1.9.5.9s1.4 1.2 1.7 2.6c.4 1.4 1.2 2.3 1.9 2.1.6-.3 1.2.1 1.2.9s-.4 1.4-.9 1.4c-.4 0-.8.5-.8 1.1 0 .5.4.8.9.4.5-.3 1.2-.1 1.6.4.3.6-.3.8-1.5.6-1.1-.2-2-.1-2 .3s-1.1.7-2.5.7c-2.8 0-3.5-2.9-1-3.9 1.3-.4 1.4-1 .5-2.6-.8-1.5-.8-2 .2-2 .9 0 .9-.3.2-.8-.6-.4-1.3-1.7-1.7-3-.4-1.9-.3-2.1.9-1.1.7.6 1.1 1.5.8 2zm17.6 4.4c0 1.3-.4 2.7-1 3-.5.3-1-.1-1-.9s-.8-1.7-1.7-1.9c-1.5-.4-1.5-.6.4-1.2 1.3-.4 2-1.2 1.6-1.8-.3-.6-.1-.7.5-.3.7.4 1.2 1.8 1.2 3.1zm-2.1 6.1c.4-.3.8.1.8.9s-.5 1.1-1.1.8c-.6-.4-.5.1.3 1 .7.9 1.7 1.5 2.1 1.2.4-.3 1 .2 1.4 1 .3.8.1 1.5-.5 1.5s-.7.6-.3 1.2c.4.7-.4.3-1.8-1-1.3-1.2-3.2-2.2-4.1-2.2-1.5 0-5.1-4-4.3-4.8.3-.2 1.3.1 2.5.7 1.4.8 2.2.8 2.7-.1.5-.7.3-.8-.7-.3-1.1.7-1.1.5.1-1 1.4-1.6 1.5-1.6 1.8-.1.2.9.7 1.4 1.1 1.2zm9.9-.9c-1.4 1.8-3.8 1.6-3.8-.2 0-1 .9-1.4 2.4-1.3 1.9.2 2.2.5 1.4 1.5zm-63.8 5.4c0 2.1-.5 3.9-1.1 3.9-.6 0-.9-.6-.7-1.2.3-.7-.1-1.8-.8-2.5-1.6-1.7-2.7-1.7-2.1-.1.2.7-.4 2.9-1.5 4.8-2.3 4.4-2.4 8.5-.2 7.6.9-.3 2-.6 2.5-.6s.9-1.1.9-2.4c0-1.9.7-2.6 3.3-3.2 3.8-1 4.6-1.1 7-1.3 1.1-.1 1.7-.9 1.7-2.4.1-2.6 2.7-6.4 3.7-5.3.4.4.1 1.6-.6 2.8-.7 1.1-.8 1.7-.2 1.3.7-.3 1.1.2 1.1 1.5 0 2-.2 2.6-3.2 8.6-1.5 3-1.5 3.1.3 2.7 1.8-.5 5.9-8 5.9-10.8 0-.8.5-1.5 1-1.5.6 0 .8 1.1.5 2.5-.3 1.4-.8 3.7-1.1 5.2-.9 4.4-4.6 11.3-6.1 11.3-.7 0-2.1 1.7-3.1 3.7-1 2.1-2.4 3.7-3 3.6-.7-.2-1.2.2-1.2.7 0 1.3-4.1 2.9-5.8 2.2-.7-.2-1-.7-.7-1 .6-.6-4.6-4.3-5.4-3.7-.3.1-.7-1.2-.8-3.1-.3-3.3.9-4.5 2.2-2.4 1.6 2.5 2.2.7.7-2-.9-1.6-1.9-3-2.2-3-.8 0-.4-11.2.5-14 1.1-3.4 3.1-5.1 5-4.4.9.4 1.5.3 1.4-.2-.3-1.8.1-2.5 1.1-1.9.6.3 1 2.4 1 4.6zm-233.9 2.2c-1.3 1.3-2.6.3-1.6-1.2.3-.6 1.1-.8 1.7-.5.6.4.6 1-.1 1.7zm278.4 2.1c0 1.9-.3 2.1-1.7 1.2-1-.6-1.8-1.6-1.8-2.3 0-.7.8-1.3 1.8-1.3 1.1 0 1.7.8 1.7 2.4zm29-.4c.3.5.1 1-.4 1-.6 0-1.1-.5-1.1-1 0-.6.2-1 .4-1 .3 0 .8.4 1.1 1zM264 274.4c0 1.6-2.8 4.2-3.6 3.3-.7-.6 1.8-4.7 2.8-4.7.5 0 .8.6.8 1.4zm-53.5 14.3c0 .9 1 1.9 2.3 2.4 1.5.6 2.1.5 1.7-.1-1-1.6.7-1.2 4.3 1 3.9 2.4 4.2 2.4 4.2.4 0-1.1 1.5-.1 4.2 2.7 2.4 2.4 4.2 4.7 4 5.1-.1.5 3.8.7 8.8.7 5.3-.1 9.5.3 10.3.9 1 .9 1.9.7 3.7-.5 1.3-.9 2-1.2 1.7-.6-.4.6.2 1.3 1.4 1.6 1.7.5 1.8.3.7-1.1-.7-.9-.8-1.4-.4-1 .5.4 1.4 0 2.1-.8 1-1.4 1.1-1.1 1 1.7-.1 2.2-.7 3.4-1.6 3.4-.8 0-3.1.5-5.1 1.2-3 .9-3.8.9-3.9 0 0-.9-.2-.9-.5 0-.3.7-1.2.9-2 .6-.8-.3-1.4 0-1.4.5 0 .6-2.7 1.4-6 1.8-5.1.6-6 .9-5.5 2.4.4 1.4 0 1.6-2.4 1.2-1.9-.2-2.8-.9-2.5-1.7.6-1.4-4.3-1.8-5.2-.4-.3.5.4.9 1.6.9 1.2 0 1.9.4 1.6.9-.3.4-2.9.8-5.8.8s-4.3-.2-3-.4c1.2-.2 2.2-.9 2.2-1.4 0-.6-.4-.7-1-.4-.5.3-1 .1-1-.4 0-.6-1.5-1.1-3.4-1.1s-4.6-.4-6-1c-1.7-.6-2.6-.6-2.6 0s.7 1 1.7 1c.9 0 1.4.2 1.1.5-.9.9-5.8-.6-5.5-1.7.1-.6-.4-1.3-1-1.5-.7-.3-1.3 0-1.3.6 0 .7-1 .5-2.5-.5s-2.5-1.2-2.5-.5-.8.8-2.6.1c-1.7-.7-3.2-.6-4.6.1-2.5 1.4-3.1.8-1.9-2.2.5-1.3 1-2 1-1.5.1.5.9.2 1.8-.5 1.5-1.2 1.6-1.2 1 .5-.7 1.8-.6 1.8 1.5.3 1.3-.8 2.2-2 2.1-2.6-.6-2.4 1.5-.9 2.1 1.4.4 1.4 1 2.3 1.5 2 .5-.2 1.2.3 1.6 1.3.6 1.6.7 1.6 1.6-.1.6-.9 1.7-1.7 2.4-1.7.8 0 1.5-.5 1.5-1 0-1.4-1.3-1.3-2.8.2-1.3 1.3-1.6-.1-.4-1.7 1-1.4 4.2-1.8 4.2-.5 0 .5.4 1 .9 1 1.4 0 4.1-2.9 4.1-4.3 0-.8-.3-.7-.9.2-.5.7-1.4 1-2 .7-1.4-.9-1.5-3.6-.1-3.6.6 0 1-.8 1-1.8 0-1.3-.2-1.4-.9-.3-.5.7-1.4 1-2 .7-.6-.4-.8-1.2-.5-1.8.5-.7.1-.9-.9-.5-2.7 1-1.9-.7 1.1-2.4s3.7-1.6 3.7.8zM266 290c0 .5-.4 1-1 1-.5 0-1-.5-1-1 0-.6.5-1 1-1 .6 0 1 .4 1 1zm-5.3 1.6c-.3.3-1.2.4-1.9.1-.8-.3-.5-.6.6-.6 1.1-.1 1.7.2 1.3.5zm30.3 5.9c-1.4 1.6-2.5 2.1-1.6.6.4-.5 0-1.2-.6-1.4-.7-.3-.2-.6 1.1-.6 2-.1 2.1.1 1.1 1.4zm-19 1.1c0 .8.6 1.4 1.4 1.4.7 0 1.8.6 2.4 1.3.8 1 .2 1.2-3 1-3.4-.2-3.9.1-3.3 1.5.5 1.4.4 1.5-.6.4-1.5-1.4-3.3-1.6-2.4-.2.3.5-.7.5-2.5-.1-3.1-1.1-3.5-1.7-2.2-3.4 1.9-2.8 10.2-4.3 10.2-1.9zm33.3 9.7c-.7 2.7-4.3 6.8-5.4 6.1-.5-.3-1 0-1 .5-.1.6-.2 1.7-.3 2.3-.1.7-.8 1.2-1.5 1-.7-.1-1 .1-.7.6.3.5-.2 1.8-1 2.8-1.5 1.8-1.5 1.8-1.1-.3.3-1.2.2-2.1-.2-2-.7.2-1.1-.7-1.1-2.9 0-.8.4-1.3.8-1 .5.3 1.5-1 2.2-2.9.8-1.9 1.9-3.5 2.5-3.5.7 0 2.2-.9 3.5-2 2.7-2.3 4-1.8 3.3 1.3zm-23.3.7c0 .5-.2 1-.4 1-.3 0-.8-.5-1.1-1-.3-.6-.1-1 .4-1 .6 0 1.1.4 1.1 1zm-3 2c1.1 1.1 1.6 2 1 2-.5 0-1 .7-1 1.5s-.6 1.2-1.4.9c-.8-.3-1.7-.1-2 .4-.3.6-1.4.8-2.5.5-1.1-.3-2.1.2-2.4 1.1-.4.9-1.6 1.6-2.7 1.6s-2 .3-2 .7c0 .5-3.2.9-7.1 1-3.8.1-7.8.4-8.7.8-.9.3-4.6.8-8.2 1-3.6.2-8.3.6-10.5.9-8.7 1.1-17.1.7-20.9-.9-2.1-.9-4.4-1.4-5.2-1.1-1.4.5-7.4-4.5-7.4-6.2 0-.6-.6-1.3-1.2-1.5-.7-.3-.1-.4 1.4-.3 1.5.2 3.3.7 4 1.2.7.6 1.8 1 2.3.9 2.7-.3 24.7-1.8 29.5-2 3-.1 10-.7 15.5-1.4 8.6-1 22.1-2.5 26.3-3 .6 0 2.1.8 3.2 1.9zm-34.1-.6c-1 1-8.9 1.4-9.4.6-.4-.6 1.5-1 4.6-1 2.9 0 5 .2 4.8.4zM168 312c0 .5-.4 1-.9 1-.6 0-1.3-.5-1.6-1-.3-.6.1-1 .9-1 .9 0 1.6.4 1.6 1zm27 1c0 .5-.8 1-1.7 1-1.5 0-1.6-.2-.3-1 1.9-1.2 2-1.2 2 0zm-29.5 4.5c0 2-.2 2.2-1.4 1.1-.7-.8-1-1.9-.7-2.5 1.2-1.8 2.1-1.2 2.1 1.4zm14.4-.4l1.9 2 1.7-2.3c1.1-1.5 1.5-1.7 1.2-.6-.5 1.3-.1 1.8 1.4 1.8s1.8.5 1.3 2.4c-.3 1.3-.1 2.7.6 3.1.7.4 1 .1.8-.8-.2-.8.9-2.6 2.3-3.9 2.6-2.4 2.6-2.4 4.2-.5.9 1.1 1.3 2.5 1 3-.3.6-1 0-1.5-1.3l-.9-2.4-2.1 2.2c-1.8 1.7-2 2.4-1 3.4.9.9 1.2.9 1.2 0 0-.7.5-1.2 1-1.2.6 0 1 .7 1 1.5s-.6 1.5-1.4 1.5c-.8 0-2.1.3-3 .6-.8.3-2.2-.3-3.3-1.5-1.7-2.1-4-3-2.9-1.2.3.5-.5.8-1.8.7-1.3 0-2.2-.4-2-.8.9-1.4-.8-3.6-2.4-3-1.5.5-1.5.4-.3-1.1.9-1.2 1-1.7.2-1.7-.7 0-.9-.5-.6-1 .9-1.4 1.2-1.3 3.4 1.1zm-11.5 2.4c-.4.8-.8 1.5-1 1.5-.2 0-.4-.7-.4-1.5s.4-1.5 1-1.5c.5 0 .7.7.4 1.5zm124.1 1.5c.3.5-.1 1-.9 1-.9 0-1.6-.5-1.6-1 0-.6.4-1 .9-1 .6 0 1.3.4 1.6 1zm15.5 3c0 .5-.7.7-1.5.4-.8-.4-1.2-1-.9-1.5.6-1.1 2.4-.2 2.4 1.1zm-14.2.6c2.5.7 3 2.4.6 2.4-.8 0-1.3.4-1 .9 1.1 1.8-3.1 1.8-5.3 0l-2.3-1.9 2.3-.9c3-1.2 2.9-1.2 5.7-.5zm6.2 3c0 .8-.5 1.2-1 .9-.6-.4-.8-1.1-.5-1.6.9-1.4 1.5-1.1 1.5.7zm-105 2c0 .8-.4 1.2-1 .9-.5-.3-1-1-1-1.6 0-.5.5-.9 1-.9.6 0 1 .7 1 1.6zm94.9 1.1c.2.2-.3 1.1-1.1 2-2.3 2.8-2.8 5.1-1.2 5.7 1.3.5 1.9-.5 1.5-2.7 0-.4.7-.7 1.7-.8.9 0 1.2-.3.5-.6-2.2-.9.9-4.3 3.9-4.3 2.2 0 2.8.5 2.8 2.2 0 2.1-.1 2.1-1.4.3-1.6-2.2-4.9-1.4-4 1 .5 1.3.9 1.3 2.2.3 1.2-1 1.4-1 .8-.1-.4.7-.9 2.1-1.1 3.2-.3 1.6.1 1.8 2.3 1.5 3.2-.4 6.7 1.9 5.6 3.7-.5.9-1 .6-1.5-.9-.5-1.2-1.5-2.2-2.3-2.2-1 0-1.3.6-1 1.5.4.8 1.1 1.5 1.8 1.5.6 0 .4.5-.4 1s-2.2.9-3 .9c-1 0-1.1-.2-.2-.6 2.6-1 1-2.1-2.4-1.6-2.5.4-3.9.2-4.4-.8-.5-.7-1.2-1.1-1.5-.7-1.2 1.2 3.4 4.8 5.2 4.1 1.2-.5 1.5-.2 1 1-.8 2 1 3.2 4.3 3l2.5-.2-2.5.8c-1.4.4-2.4 1.4-2.2 2.2.3 1.1.1 1.1-.9.2-.6-.6-1.8-.9-2.5-.6-.8.3-1.4 0-1.4-.7 0-1-.3-1-1.5 0s-1.5.9-1.5-.6c0-1.4-.3-1.5-1.2-.6-.8.8-.8 1.5.2 2.7 1.1 1.4 1 1.6-.6 1.4-.8-.1-4.4 4.2-4.4 5.3 0 .5.4.6 1 .3s.7.1.4.9c-.3.9-1.2 1.6-1.8 1.6-1.9 0-5.8 4.1-5.2 5.5.2.7-.2 1.6-1 1.9-.8.3-1.7-.1-2-.9-.4-.8-1.3-1.5-2-1.5-.8 0-1.7-.7-2.1-1.6-.3-.9-1.5-2-2.7-2.4-2.1-.9-2.1-.9.2-.9 1.3-.1 2.2-.7 2.2-1.6 0-1.8-.1-1.8-3.4-.5-1.7.6-2.6.6-2.6 0s.5-1 1.1-1c.5 0 .8-.4.5-.9-.3-.5.3-2 1.4-3.2 1.8-2.1 1.9-2.2 1.4-.4-.5 1.6-.4 1.7.5.5 1.5-2.1 1.4-3-.6-3-1.4 0-1.8-.9-1.8-4-.1-2.2.3-4 .8-4s.6-.7.3-1.6c-.3-.8-.2-1.2.4-.9.6.3 1 .2 1-.3s1.4-1.2 3-1.6c1.7-.3 2.9-1.1 2.8-1.8-.2-.7.7-1.4 2-1.6 1.2-.2 2.2 0 2.2.5 0 .4 1.1.8 2.4.8 1.3 0 2.2-.3 1.9-.8-.2-.4.1-.7.6-.7.6 0 1.1-.5 1.1-1.1 0-.5-.5-.7-1.1-.3-.7.4-1 .1-.7-.7.3-.8 1.7-1.3 3.4-1.2 2.4.2 2.6 0 1.1-.8-.9-.6-1.5-1.5-1.1-2 .4-.6 1.2-.5 2.2.3 1 .7 1.9 1.4 2.1 1.5zm-8.9-.7c0 .5-.4 1-.9 1-.6 0-1.3-.5-1.6-1-.3-.6.1-1 .9-1 .9 0 1.6.4 1.6 1zm-25.4 2.1c.3.5-.2.9-1 .9-1.9 0-2.1 1.1-.5 2.7.8.8.5 1.3-1 1.8-1.1.3-2.5.4-2.9.1-.9-.6-4.3 3-3.6 3.7.3.3 0 .8-.7 1.3-.8.4-1 .3-.5-.4.4-.7.1-1.2-.8-1.2-.8 0-1.6.5-1.8 1-.2.6-1.6 1.3-3.2 1.6-3.3.6-6.8 2.3-4.8 2.4 1.7 0 1.5 2-.3 2-.8 0-1.5.7-1.5 1.6 0 .8-.5 1.2-1 .9-.6-.4-.8-1.1-.5-1.6.6-.8-.1-1-4.5-1.4-.8 0-2.1-.4-2.8-.8-.7-.5-1.2-.3-1.2.7 0 .8.9 1.8 2.1 2.1 2.9.9 1.8 2.8-2 3.6-3.8.8-6.9 3.2-3.6 2.9 3.4-.4 4.6 0 4 1.1-.4.6-1.3.8-2.1.5-.8-.3-1.4-.1-1.4.3 0 .5-1 .7-2.2.4-2.3-.4-2.3-.4-.3 1.2 1.1.9 1.9 2.1 1.8 2.6-.5 1.5 2.4 1 3.1-.6.3-.8 1.1-1.5 1.8-1.5.9 0 .8.3-.2 1-1.2.8-1.1 1 .8 1 1.2 0 2.2.5 2.2 1.1 0 .6-.7.9-1.5.6-.8-.4-1.7-.2-2 .3-.4.6-1.6 1-2.8 1.1-2 .1-1.9.2.6 1.2 2.6 1 3.8 3.7 1.7 3.7-.5 0-1-.5-1-1 0-.6-.7-1-1.5-1-1.4 0-1.7.4-1.9 3.2-.2 2.5-2.6 4-5.2 3.4-1.7-.5-2.3-.3-1.9.4.8 1.2.3 1.3-2.9 0-2.4-.9-2.6-.7-2.6 1.6 0 2.2-.2 2.5-1.5 1.4-1.2-1-1.5-1-1.5.4 0 .9.7 1.6 1.5 1.6s1.5.4 1.5 1c0 .5-.6 1-1.2 1-2.2 0-3.5-1.4-3.2-3.2.1-1-.2-2-.7-2.4-.5-.3-.9 0-.9.6s-.4.8-1 .5c-.5-.3-1 .1-1 .9 0 .9-.4 1.6-.9 1.6s-.7-.9-.4-2c.7-2.5-.5-2.6-2.3-.3-1.2 1.6-1.2 1.6-.7-.6.5-2.1.3-2.3-1.5-1.9-3.2.9-2.7.1 1.2-1.7l3.5-1.7-2.1-2.4c-2.1-2.3-2.1-2.3-3.9-.3-1.1 1.2-2 1.6-2.4.9-.3-.5-.1-1 .4-1 1.6 0 .8-4.2-1.1-6.4-1.6-1.7-1.8-1.7-3.3-.2-1.5 1.5-1.5 1.6.1 1.6 1 0 1.5.3 1.1.6-.3.3-1.5.3-2.7-.1-2-.6-2-.8-.5-3.1.8-1.3 1.2-2.4.7-2.4-.4 0-.8-.8-.8-1.8-.1-.9-.5-2.5-.9-3.5-.6-1.4-.2-2 1.4-2.4 1.1-.3 2.1-.9 2.1-1.4 0-.5.5-.9 1-.9.6 0 1 .7 1 1.5 0 1.5-1.1 1.9-3.9 1.6-.7-.2-1 .2-.6.8 1 1.7 3.3 1.3 5.6-1l2.1-2.1 2 2.2c1.6 1.7 2.2 1.9 2.9.8 1.2-1.8 1.1-5.1-.1-4.3-.5.3-1 .2-1-.4 0-.6-.8-.8-1.7-.5-1.5.5-1.6.4-.3-.5.8-.6 2.3-.8 3.4-.5 2.6.8 1.1-1.5-1.8-2.6-1.7-.7-1.7-.9-.3-.9.9-.1 1.7-.5 1.7-1s-.8-1.2-1.7-1.4c-1-.3-.2-.4 1.7-.4 3 .2 3.6-.2 4.5-2.8 1.2-3.5 4.5-4.7 4.5-1.6 0 1.3.5 1.9 1.4 1.5.8-.3 1.7-.1 2.1.5.3.6 0 1.1-.7 1.1-2 .1 2.3 3 4.4 3 1.2 0 1.6-.5 1.1-1.8s-.3-1.4.7-.5c.7.6 1.8.9 2.4.7.6-.2 2.1.4 3.2 1.4 1 1 2.6 1.6 3.3 1.4.9-.3 1.1 0 .6.8-.6 1-.4 1.2.9.7 1-.4 1.5-.3 1.1.3-.8 1.4.7 1.2 2.6-.3 2.4-1.8 1.3-3.8-1.6-2.7-2.6 1-3.5.5-3.5-1.9.1-3.1 3.6-6.2 8.5-7.5 5.6-1.5 24.2-1.8 25.1-.5zm47.4-.7c0 .2-.7.7-1.6 1-.8.3-1.2.2-.9-.4.6-1 2.5-1.4 2.5-.6zM196 333c0 .5-.4 1-1 1-.5 0-1-.5-1-1 0-.6.5-1 1-1 .6 0 1 .4 1 1zm84.5 1c.3.5.1 1-.4 1-.6 0-1.1-.5-1.1-1 0-.6.2-1 .4-1 .3 0 .8.4 1.1 1zm24.5 3c0 .5-.2 1-.4 1-.3 0-.8-.5-1.1-1-.3-.6-.1-1 .4-1 .6 0 1.1.4 1.1 1zm-107.5 1c-.3.5-1.2 1-1.8 1-.7 0-.6-.4.3-1 1.9-1.2 2.3-1.2 1.5 0zm52.8 2.7c-.4 1.1-.3 1.4.5.9.7-.4 1.2-.2 1.2.3 0 1.3-1 1.4-2.9.2-.7-.5-1-1.4-.7-2 1.1-1.7 2.6-1.3 1.9.6zm6.2.3c-.3.5-1.2 1-1.8 1-.7 0-.6-.4.3-1 1.9-1.2 2.3-1.2 1.5 0zm54.8 2.3c.7-.3.2.5-1.1 1.9-1.5 1.6-2 3.2-1.6 4.4.5 1.5.4 1.6-.5.4-1.1-1.6-1.2-1.6-2.9 2.4-1.1 2.4-1.1 3.1 0 3.7 1.4.9.5 1.2-2.4 1-1.1-.2-1.6.3-1.3 1.1.4 1-.4 1.4-2.7 1.6-2.7.1-3 0-1.5-.9.9-.6 1.5-1.4 1.2-1.9-.3-.5-.1-1.1.5-1.5.6-.3 1.7-2.2 2.5-4.1.8-1.9 2.2-3.7 3.2-4.1 1.9-.7 4.9-3.3 3.8-3.3-.3 0-.3-.5.1-1.2.6-.9.9-.9 1.2 0 .2.7.9.9 1.5.5zm-10.8 1.7c-.3.5-1.1 1-1.6 1-.6 0-.7-.5-.4-1 .3-.6 1.1-1 1.6-1 .6 0 .7.4.4 1zm-58.4 5.7c-1.4.6-3 .8-3.5.3s-1.6-.6-2.5-.3c-1.2.3-1.2.2.2-.7 1-.6 2.5-.9 3.2-.6.8.3 1.7.1 2-.4.4-.6.1-1-.5-1s-.9-.4-.5-1c.3-.5 1.3-.2 2.4.8 1.7 1.6 1.6 1.8-.8 2.9zm14.9-1.1c0 1.4-.3 1.5-1.7.3-1-.7-2-1.5-2.2-1.6-.2-.2.5-.3 1.7-.3 1.4 0 2.2.6 2.2 1.6zm-26.3 2c-.9.9-2.8-.6-2.1-1.8.4-.6 1-.6 1.7.1.6.6.8 1.3.4 1.7zM252 350c0 .5-.5 1-1.1 1-.5 0-.7-.5-.4-1 .3-.6.8-1 1.1-1 .2 0 .4.4.4 1zm-3.3 1.6c-.3.3-1.2.4-1.9.1-.8-.3-.5-.6.6-.6 1.1-.1 1.7.2 1.3.5zm44.6 2.9c-.9 1.5-1.1 1.5-2.4-.1-.8-1-.9-1.5-.2-1.1.6.4 1.5.2 1.8-.4 1.1-1.7 1.8-.2.8 1.6zM308 353c0 .5-.4 1-1 1-.5 0-1-.5-1-1 0-.6.5-1 1-1 .6 0 1 .4 1 1zm-73.6.7c-.5.5-1.2 1.2-1.5 1.6-.3.5-.9.2-1.2-.7-.5-1.2 0-1.6 1.5-1.6 1.2 0 1.7.3 1.2.7zm12 3.9c.4 1.2.2 1.5-.9 1-.8-.3-1.5-.1-1.5.4s-.7.7-1.6.3c-1.4-.5-1.2-.8.7-1.9 1.3-.7 2.5-1.3 2.5-1.4.1 0 .5.7.8 1.6zm-66.9.4c.3.5.1 1-.4 1-.6 0-1.1-.5-1.1-1 0-.6.2-1 .4-1 .3 0 .8.4 1.1 1zm42.5 15.1c0 1-.4 1.9-1 1.9-.5 0-.9-1.1-.8-2.4.3-2.8 1.8-2.4 1.8.5zm36-.5c0 .9-.5 1.4-1.2 1.2-1.8-.6-2.1-2.8-.4-2.8.9 0 1.6.7 1.6 1.6zm-48 9.4c.8.5 1.1 1 .5 1-.5 0-1.7-.5-2.5-1s-1-1-.5-1c.6 0 1.7.5 2.5 1zm-20 9c0 .5-.5 1-1.1 1-.5 0-.7-.5-.4-1 .3-.6.8-1 1.1-1 .2 0 .4.4.4 1zm23 19c0 .5-.2 1-.4 1-.3 0-.8-.5-1.1-1-.3-.6-.1-1 .4-1 .6 0 1.1.4 1.1 1zm24.5 37.2c-.3-.6-.1-1.2.4-1.2.9 0 1.6 3.7 1.2 6.3-.1.4.8.3 2-.4 1.2-.6 1.9-.7 1.5-.1-.3.6 0 1.3.6 1.5.8.4.7.6-.4.6-.9.1-1.8.6-2 1.2-.3.9-.9.9-2.3.1-1.1-.7-3.9-1.6-6.3-2.2-3.8-1-4.1-1.3-3.2-3 .6-1.1 2.3-2.6 3.7-3.4 2.4-1.2 2.9-1.2 4.1.3.7.9 1.1 1 .7.3zm125.3 8.1c.8.6 1.2 2.2.9 3.6-.3 1.6.1 3.3 1.1 4.4 1.5 1.7 1.5 2.1.1 4.5-1.2 2.2-2.3 2.8-6.2 3l-4.7.3v-8.4c0-4.6.3-8.7.7-9.1.9-.9 6.4.3 8.1 1.7zm16.2 3.1c0 7 1.3 10.6 4 10.6 2.3 0 4.2-3.8 3.9-8-.3-5.1.1-8 1.1-8 .7 0 1 3 .8 8.2-.3 7.8-.4 8.3-3 9.8-2.5 1.3-3.1 1.3-5.5 0-2.7-1.5-2.8-2-3.1-9.8-.2-5.2.1-8.2.8-8.2.6 0 1 2.3 1 5.4zm31-4.2c0 .7-1.4 4.2-3 7.6-1.7 3.5-3 6.6-3 6.9 0 .2 1.4.2 3-.2 2.3-.5 3-.3 3 .8s-1.4 1.6-4.6 1.9c-2.5.2-4.8 0-5-.4-.3-.4 1.1-3.9 3.1-7.8l3.5-7h-3.5c-3.3 0-4.3-.8-2.8-2.3 1.2-1.3 9.3-.8 9.3.5zm21-.7c0 .3-1.6 3.7-3.5 7.5s-3.5 7.2-3.5 7.5c0 .2 1.4.2 3-.2 2.3-.4 3-.2 3 1 0 1.1-1.3 1.6-4.7 1.9-2.7.3-4.9.4-5.1.3-.1-.1 1.3-3.7 3.2-7.9l3.5-7.6h-3.5c-3.2 0-4.2-.8-2.7-2.3.7-.8 10.3-.9 10.3-.2zm13 2.7v3.2l3.3-3.2c3.2-3.2 5.7-4.1 5.7-2.2 0 .5-1.8 2.4-4 4.1l-4.1 3.3 4.7 4.7c3.3 3.4 4.2 4.8 3.1 5.2-.9.3-2.8-.9-4.8-2.9l-3.4-3.5-.5 3.1c-1 6.4-2.5 3.4-2.8-5.8-.2-7.7 0-9.2 1.3-9.2 1 0 1.5 1 1.5 3.2zm22.8 6c-.2 5.4-.7 9.3-1.3 9.3-.6 0-1.1-3.9-1.3-9.3-.2-7.8 0-9.2 1.3-9.2s1.5 1.4 1.3 9.2zm14-1l.3 7.4 2.9-.4c2.2-.3 3 0 3 1.1s-1.3 1.6-4.5 1.9l-4.5.3v-9.3c0-7.1.3-9.3 1.3-9 .8.3 1.3 3.1 1.5 8zm19.2-.3v7.9l3.1-.2c5.2-.2 4.6 2.1-.6 2.6-2.6.2-4.8.1-5.1-.1-.2-.2-.4-4.4-.4-9.3 0-7.2.3-8.8 1.5-8.8s1.5 1.5 1.5 7.9zm-255.4-1.3c1.9 1.5 3.3 2.9 3.1 3.1-.9.9-8.7-3-8.7-4.3 0-2.1 1.7-1.7 5.6 1.2zm4.4 31.9c0 10.2-.2 11.7-2 13.5-2.4 2.4-4.1 2.5-8 .5-3.2-1.7-3.5-2.2-2.1-4.4.8-1.2 1.4-1.3 3.7-.3 1.4.7 2.9 1.1 3.1.8.2-.2.6-4.8.8-10.2.1-5.5.3-10.2.4-10.7.1-.4 1-.7 2.1-.7 1.9 0 2 .7 2 11.5zm101.9-10.1c1.5.8 3.4 2.2 4.1 3.1 1.2 1.5 1.2 1.9-.5 3.1-1.6 1.2-2.1 1.1-4-.6-5-4.7-13.5-.7-13.5 6.5 0 6.7 7.5 10.9 12.6 7 4.6-3.5 8.4-.5 3.9 3.1-10.9 8.7-25.4-3-19.7-15.9 3-6.7 10.7-9.6 17.1-6.3zm67.1-.7c-.1 2.5-10.1 24.8-11.1 24.8-1.2 0-3.2-4.3-8.5-18.3l-2.3-6.2h2.2c1.8 0 2.7 1.3 5.2 7.4 1.6 4.1 3.2 7.3 3.6 7 .4-.2 2-3.5 3.5-7.4 2.4-6.1 3.5-7.4 6.7-7.9.4 0 .7.2.7.6zm18.9.7c4.1 2.2 6.5 6.4 6.5 11.8.1 5.6-2.4 9.5-7.9 12.2-3.5 1.7-4.2 1.8-7.9.5-9.9-3.5-11.7-17-3-23.8 3.1-2.5 8.3-2.7 12.3-.7zm23.3 1.3c3.8 3.4 2.9 9.4-1.6 11.5l-2.5 1.1 3.1 4.3c1.7 2.4 3.4 4.4 3.8 4.4.4 0 3.1-5.4 6-12s5.6-12 6-12c.6 0 3.2 5.6 10.6 22.7 1.4 3.2 1.3 3.3-.9 3.3-1.7 0-2.8-1-4-3.5-1.5-3.1-2.1-3.5-5.7-3.5s-4.2.4-5.7 3.5c-1.5 3.2-2 3.5-6 3.5s-4.5-.4-8-5.1l-3.8-5-.3 5c-.3 4.3-.6 5.1-2.3 5.1-1.9 0-2.1-1.8-2.1-15.5 0-.8 0-3.6.1-6.1l.1-4.7 5.7.7c3.1.4 6.5 1.4 7.5 2.3zm31.8.8c0 1.9.4 3.5.8 3.5s2.3-1.6 4.2-3.5c3-3.1 8-4.8 8-2.8 0 .4-2.5 3.2-5.5 6.3l-5.4 5.5 6 6.7 6.1 6.8h-3c-2.3 0-3.9-1-6.5-4-1.9-2.2-3.7-4-4-4-.4 0-.7 1.8-.7 4 0 3.3-.3 4-2 4-1.9 0-2-.7-2-13s.1-13 2-13c1.6 0 2 .7 2 3.5zM361.5 503c0 1.5-.6 2.6-1.6 2.8-1.9.3-3.1-2.1-2.2-4.3.9-2.5 3.8-1.3 3.8 1.5z"/><path d="M318 181.9c0 .6.4 1.3 1 1.6.6.3.7-.1.4-.9-.7-1.8-1.4-2.1-1.4-.7zM320 186.4c0 .2.7.6 1.5 1 .8.3 1.5.1 1.5-.4 0-.6-.7-1-1.5-1s-1.5.2-1.5.4zM320.5 190c.3.5.8 1 1.1 1 .2 0 .4-.5.4-1 0-.6-.5-1-1.1-1-.5 0-.7.4-.4 1zM328 196.9c0 .6.4 1.3 1 1.6.6.3.7-.1.4-.9-.7-1.8-1.4-2.1-1.4-.7zM418.1 207.3c-.6.8-.8 1.6-.5 2 1 .9 3.4-.4 3.4-1.9 0-1.8-1.4-1.8-2.9-.1zM406 210.1c-1 1.8-.9 2 .6 1.7.9-.1 1.8-1.1 2-2.1.3-2.4-1.3-2.2-2.6.4zM291.3 336.7c-.7.2-1.3 1.4-1.3 2.4 0 2.5 1.6 1.7 2.3-1.1.3-1.1.4-2 .4-1.9-.1 0-.8.3-1.4.6zM285 343c0 .5.5 1 1 1 .6 0 1-.5 1-1 0-.6-.4-1-1-1-.5 0-1 .4-1 1zM288.4 346.8c1.1 1.2 1.9 1.3 2.7.5.7-.7.3-1.2-1.6-1.5-2.5-.5-2.5-.4-1.1 1zM269 356.5c0 .2.8.9 1.8 1.4 1.4.7 1.9.6 1.9-.3 0-.6-.9-1.3-1.9-1.3-1-.1-1.8 0-1.8.2zM251 336c0 .5.5 1 1.1 1 .5 0 .7-.5.4-1-.3-.6-.8-1-1.1-1-.2 0-.4.4-.4 1zM239.8 341.7c.7.3 1.6.2 1.9-.1.4-.3-.2-.6-1.3-.5-1.1 0-1.4.3-.6.6zM357 457.9c0 1.5.6 2.1 2.1 2.1 2.5 0 2.2-3.3-.4-3.8-1.2-.2-1.7.3-1.7 1.7zM357.2 465.7c.2 2.2.8 2.7 2.3 2.5 1.1-.2 2.4-.8 2.9-1.2 1.3-1.3-1.2-4-3.6-4-1.5 0-1.9.6-1.6 2.7zM426.9 486c-2.3 1.4-4.2 6.5-3.5 9.5.9 3.5 4.5 6.5 7.8 6.5 7.1 0 10.7-10.5 5.2-14.9-2.8-2.2-6.8-2.7-9.5-1.1zM451 488.1c0 2.8.3 3.1 2.3 2.5 1.2-.3 2.8-.6 3.5-.6.8 0 1.2-.9 1-2.3-.2-1.7-1.1-2.3-3.5-2.5-3.1-.3-3.3-.1-3.3 2.9zM473.6 491.6c-.9 2.3-.8 2.4 1.4 2.4 1.1 0 2-.2 2-.4 0-1.2-1.3-3.6-2-3.6-.4 0-1.1.7-1.4 1.6zM478.3 35.7c1 1.6 27.8 62.7 28 63.8.1.5-2.3 1.3-5.3 1.6l-5.5.6 6.8.1c4.2.1 6.7-.2 6.7-.9 0-.9-11.9-28.2-24-54.8-2.6-5.8-5.3-10.7-6-10.9-.7-.3-1 0-.7.5zM278.7 44.1c1.2 1.2 2.4 2.1 2.7 1.8.2-.2-.8-1.3-2.2-2.3l-2.7-1.9 2.2 2.4zM453.6 42.8c-.3.5-.1 3.7.4 7.2.6 4.1.5 7-.1 8.2-.6 1.1-.8 2.6-.5 3.5.3.8.1 2.3-.4 3.3-.7 1.4-.7 2.5.2 3.9 1 1.6.9 2.5-.2 4.6-1.8 3.3-3.5 1.7-1.9-1.9 1.1-2.2 1-2.9-.4-4.3-2.2-2.3-2.6-1.6-2.8 4.8-.1 3-.5 5.8-.9 6.4-.8 1-3.1 16.7-2.6 17.2.4.4 5.7-12 6-13.9.1-.7.9-2.4 1.9-3.8 2.5-3.9 10.7-23.9 10.7-26.4 0-5-7.4-12-9.4-8.8zM87.5 46.9C79.5 50.6 75 58 75 67.5c0 8.7 3.7 15.7 10.2 19.1 2.1 1.1 2.6 1.1 2.3.2-.3-.9.5-1.4 2.5-1.5 2.7-.2 3 0 2.5 1.7-.5 1.5-.2 2 1.4 2 1.5 0 1.9-.5 1.4-1.6-.5-1.4-.1-1.6 3-1 3.5.7 3.7.5 3.7-1.9 0-2.3-.3-2.5-2.2-1.9-2 .6-2.1.5-.9-1 1.4-1.6 5.1-2.2 5.1-.8 0 .5.6 1.7 1.4 2.7 1.3 1.8 1.5 1.8 4 .2 2.1-1.5 2.4-2.1 1.6-3.7-1.5-2.7-1.2-5 .5-5 .9 0 1.5.9 1.5 2.2 0 2.9 2 1 2.4-2.3.1-1.3.6-3.2 1-4.2 1.2-2.6-.2-11.9-2.4-15.4-5.3-8.8-17.4-12.6-26.5-8.4zm16.1 1.2c.4.8-.1.9-1.6.4-1.8-.6-2.1-.3-2 1.7.2 2.8-.9 6.8-2 6.8-1.5 0-1.9-3.1-.5-3.6 1.8-.7 2-3.1.3-3.6-.6-.2-.8-1-.4-1.6.9-1.5 5.3-1.6 6.2-.1zM94.5 51c.3.5-.1 1-.9 1-.9 0-1.6-.5-1.6-1 0-.6.4-1 .9-1 .6 0 1.3.4 1.6 1zm-4 2c-.3.5-1 1-1.6 1-.5 0-.9-.5-.9-1 0-.6.7-1 1.6-1 .8 0 1.2.4.9 1zm-3.5.9c0 2.5-1.4 4.1-3.6 4.1-2.8 0-3.2-2.4-.6-3.9 2.2-1.3 4.2-1.4 4.2-.2zm7 5.1c0 2.2-.1 2.3-2.4 1.4-1.3-.5-1.4-.9-.5-2 1.6-2 2.9-1.7 2.9.6zm-13.9 7.8c-2.2 1.5-2.8 4.6-1.1 5.7.5.3 1.7-.6 2.6-2 1.8-2.7 4.4-3.4 4.4-1 0 1.8-5.6 4.9-7.6 4.1-.9-.3-1.4-2-1.4-4.3 0-3 .5-4 2.3-4.8 3-1.4 3.7.5.8 2.3zm22.3 2.3c-.3.5-1 .7-1.5.3-.5-.3-.7-1-.3-1.5.3-.5 1-.7 1.5-.3.5.3.7 1 .3 1.5zm-8.7 2.5c-.3.3-1.2.4-1.9.1-.8-.3-.5-.6.6-.6 1.1-.1 1.7.2 1.3.5zm8 3c-.3.3-1.2.4-1.9.1-.8-.3-.5-.6.6-.6 1.1-.1 1.7.2 1.3.5zM155 46.5c0 .9.5 1.5 1.1 1.3.6-.2 1.1-.8 1.1-1.3s-.5-1.1-1.1-1.3c-.6-.2-1.1.4-1.1 1.3zM244 46.3c-5.3 1.7-12.6 9.3-14 14.7-1.4 5.1-.7 11.7 1.6 16.1 2.2 4.3 2.8 3.1.8-1.7-2.5-5.9-1.5-14.3 2.2-19.6 3.6-5.1 7.8-7.7 15.3-9.4 5.3-1.1 5.4-1.2 1.6-1.2-2.2 0-5.6.5-7.5 1.1zM66.7 48c-.3 1.1-.3 2-.1 2 .2 0 .8-.9 1.4-2 .6-1.1.7-2 .2-2-.6 0-1.2.9-1.5 2zM210.6 46.9c-.4.7-.5 1.5-.2 1.8.9.9 1.9-.4 1.4-1.8-.4-1.1-.6-1.1-1.2 0zM309.6 46.8c-.7.6 1.7 4.2 2.7 4.2.5 0 .6-.7.3-1.6-.5-1.2 0-1.5 2.2-1.4 4.1.3 5.6.1 4.8-.7-.7-.8-9.3-1.2-10-.5zM402 66.8c0 18.3.2 21.2 1.5 21.2 1.1 0 1.4-.7.9-2.4-.3-1.3-.1-3.2.4-4.3.5-1 1.3-3.5 1.6-5.7.6-3.3.5-3.8-.8-3.3-2.8 1.1-2.1-5.9.9-8.5 2.7-2.3 2.4-4.2-.6-3.3-1.7.6-1.9.1-1.8-6 .1-3.7-.4-7.2-1-7.8-.8-.8-1.1 4.6-1.1 20.1zM260.6 49.5c.3 1.3.8 4.4 1 6.7.8 8.5.9 8.8 2.7 8.8 1 0 1.5-.5 1.2-1.1-.4-.5.1-1.9 1.1-3 1.6-1.8 1.6-2 0-3.8-1-1.1-1.6-2.8-1.5-3.8.3-1.8-2.8-6.3-4.3-6.3-.5 0-.6 1.1-.2 2.5zM278.1 51.4c-2.5 2.5-4.2 4.9-3.8 5.3 1 .9 9-7.2 8.6-8.6-.2-.6-2.4.9-4.8 3.3zM301.1 52.7c.1 3.2.3 4.9.6 3.8 2-8.5 2.1-9.5.7-9.5-1 0-1.4 1.4-1.3 5.7zM407.8 47.7c.6.2 1.2 1.3 1.2 2.4 0 2.5 2 2.5 2.7 0 .3-1.1 1.5-2.2 2.7-2.4 1.1-.2-.1-.5-2.9-.5-2.7 0-4.4.2-3.7.5zM418.2 51.2c.4 4 2.5 4.8 3.4 1.3.4-1.8.2-3-.7-3.6-2.4-1.5-3-1-2.7 2.3z"/><path d="M318 50.4c0 2.5 1.2 4.6 2.6 4.6 1.7 0 1.7-.2.2-3.5-1.2-2.7-2.8-3.3-2.8-1.1zM197 50.1c0 .3 4.7 11.3 10.5 24.4 8.9 20.3 10.4 24.4 9.9 27.5-.4 2.6-.2 4 1 4.9.9.7 1.3 1.7 1 2.2-.3.5 0 1.7.5 2.7.6 1.1.7 3.1.2 4.8-.4 1.7-.3 3.6.3 4.6.7 1.2.3 2.4-1.7 5.1-1.5 2-2.7 4-2.7 4.6 0 1.9 1.8 1.2 2.5-.9.7-2.3 3.5-2.7 3.5-.5 0 1.8 1.2 1.9 2.7.4.9-.9.9-1.6 0-3s-.9-2.1.1-3.1c1.7-1.7 1.5-3.8-.3-3.8-1.2 0-1.3-.4-.3-2.6s.9-2.7-.4-3.5c-1-.5-1.4-1.7-1.1-2.9.3-1.1 0-2.7-.7-3.5-.6-.8-.9-1.9-.5-2.5.4-.6.1-1.8-.6-2.6-.7-.9-1.3-3.8-1.3-6.5 0-4.2-.3-4.9-1.9-4.9-1.5 0-1.8-.5-1.3-2.5.4-1.4.2-2.5-.4-2.5-1.6 0-1.2-2.2.7-3.5 1.5-1.1 1.5-1.3-.6-2.5-1.9-1-2.5-.9-3.2.1-.4.7-1 1.1-1.3.8-.7-.7-10.6-23.7-10.6-24.7 0-.8-4-7-4-6.1zM330.2 54.5c0 1.6.2 2.2.5 1.2.2-.9.2-2.3 0-3-.3-.6-.5.1-.5 1.8zM249.3 57.9c.3 2.8 1 5.8 1.6 6.8.8 1.4 1 .3 1.1-5 0-5.5-.3-6.7-1.6-6.7-1.4 0-1.5.8-1.1 4.9zM308 56c0 2.1 3 2.7 6.4 1.4 2.5-1 0-3.4-3.5-3.4-2.2 0-2.9.5-2.9 2zM211 55.9c0 2 1.3 4.1 2.1 3.5 1.5-.9 1-4.4-.6-4.4-.8 0-1.5.4-1.5.9zM423 55.9c0 .6.5 1.3 1 1.6.6.3 1-.1 1-.9 0-.9-.4-1.6-1-1.6-.5 0-1 .4-1 .9zM145.6 57.6c-1 2.6.5 3.9 2.1 1.9.7-1.1 1.3-2.2 1.3-2.7 0-1.5-2.8-.8-3.4.8zM184.6 62.6c-1 2.5-1.6 4.7-1.3 5 .9.9 4.6-7.1 3.9-8.3-.4-.7-1.5.8-2.6 3.3zM472.7 62.5c-.9 2-1.7 4.2-1.7 5 0 2.5 2.8.5 3.9-2.7 2.2-6.4.6-8.1-2.2-2.3zM449 61.9c0 1.1.4 2.1.9 2.1 1.8 0 2.1-1.8.6-3-1.3-1-1.5-.9-1.5.9zM19 80.9v20l-4.7.4c-4.7.3-4.7.3 1 .5l5.7.2V82.1c0-12.3-.4-20.2-1-20.6-.7-.4-1 6.3-1 19.4z"/><path d="M211.4 63.4c-.5 2 2 13.6 2.9 13.6.2 0 0-13.1-.2-15.3-.2-1.7-2.1-.5-2.7 1.7zM416 61.8c0 .4-1 1.2-2.2 1.7-1.7.7-2.3 2-2.5 4.8-.1 2.6.2 3.7 1 3.4.6-.2 1.2-1.8 1.3-3.6.2-3.7.8-4.6 2.4-3.6.7.4.9 1.8.5 3.2-.4 1.6-.2 2.2.5 1.8.5-.3 1-1.3 1-2.1s.5-1.4 1-1.4c.6 0 1-1.1 1-2.5 0-1.8-.5-2.5-2-2.5-1.1 0-2 .3-2 .8zM425.7 63.4c-3.6 3.4-3.5 5.1.2 3.1 3.5-1.8 4.7-3.3 3.4-4.6-.6-.6-2 0-3.6 1.5zM274.8 62.7c-1 .2-1.8.9-1.8 1.4 0 .6 1 .5 2.3-.2 3.7-2 3.6-2.3-.5-1.2zM243.5 64.9c-.8 2.6.1 3.9 1.6 2.4.8-.8.8-1.7.1-2.9-.9-1.6-1-1.5-1.7.5zM387.1 65.9c-1.8 1.2-.6 4.2 1.4 3.5.8-.3 1.5-1.5 1.5-2.5 0-2.1-.8-2.3-2.9-1zM406 68c0 1.1.5 2 1 2 .6 0 1-.9 1-2s-.4-2-1-2c-.5 0-1 .9-1 2zM252.4 78.7c.1 5.7.3 10.3.6 10.3 1.1 0 2.6-7 1.7-7.9-.5-.5-1.3-3.6-1.7-6.8-.6-4.9-.7-4.2-.6 4.4zM421 70.5c0 .8.2 1.5.4 1.5s.6-.7 1-1.5c.3-.8.1-1.5-.4-1.5-.6 0-1 .7-1 1.5zM243.2 74.2c.5 3.2 2.8 3.5 2.8.4 0-1.7-.5-2.6-1.6-2.6-1 0-1.4.7-1.2 2.2zM414.1 74.8c-.6 1-.8 2.2-.5 2.5.3.3 0 1.4-.7 2.6-1.7 2.7-.1 4.2 1.7 1.6 2.1-2.8 2.8-6.5 1.6-7.7-.7-.7-1.3-.4-2.1 1zM424.4 75.1c-.6.8-1.1 3.1-1.1 5.3l-.1 3.8 2-3.3c1.4-2.3 1.7-3.8 1.1-5.2-.7-1.6-1.1-1.7-1.9-.6zM419.7 76.7c-.4.3-.7 1.3-.7 2.1 0 1.2.3 1.2 1.5.2.8-.7 1.5-1.6 1.5-2.1 0-1.1-1.4-1.2-2.3-.2zM262.5 78c-.3.5-.2 1 .3 1s1.2 1.4 1.6 3.1c.6 3.2 2.6 3.1 2.6-.2 0-1.1.7-2.2 1.6-2.6 1.3-.5 1.3-.7.2-1.4-1.8-1.2-5.5-1.1-6.3.1zM172.5 90.1c-5 11.4-4.8 10.9-3.7 10.9.5 0 1.5-1.2 2.2-2.8 1.1-2.4 1.3-2.5 1.9-.9.9 2.3 1.4 2.2 4.7-.8l2.6-2.4-3.6.6-3.7.6 1.1-2.9c.6-1.6 1.8-3.6 2.6-4.5.8-.9 1.4-2 1.3-2.5-.4-2.1.2-3.3 1.9-3.7 1.1-.3.9-.5-.8-.6-2.2-.1-3 1-6.5 9zM183.3 81.7c.9.2 2.5.2 3.5 0 .9-.3.1-.5-1.8-.5-1.9 0-2.7.2-1.7.5zM190.8 81.7c1.2.2 3.2.2 4.5 0 1.2-.2.2-.4-2.3-.4s-3.5.2-2.2.4zM245.7 81.7c-1.1 1-.8 6.1.3 6.8.5.3.7 0 .4-.8-.3-.8-.1-1.8.5-2.2.6-.3 1.1-1.5 1.1-2.6 0-1.9-1.1-2.5-2.3-1.2zM306.6 82.7c-1.2 1.2-.6 3.3.9 3.3.8 0 1.5-.6 1.5-1.4 0-1.7-1.4-2.8-2.4-1.9zM408 83.1c0 .5.5.7 1 .4.6-.3 1-.8 1-1.1 0-.2-.4-.4-1-.4-.5 0-1 .5-1 1.1zM417.6 82.9c-.4.7-.5 1.5-.2 1.8.9.9 1.9-.4 1.4-1.8-.4-1.1-.6-1.1-1.2 0zM236.5 84c.3.5 1.3 1 2.1 1s1.2-.5.9-1c-.3-.6-1.3-1-2.1-1s-1.2.4-.9 1zM411 86c-.8.5-1.1 1.2-.8 1.6 1 .9 3.8-.3 3.8-1.6 0-1.2-1-1.3-3 0zM68.6 89.7c-.9.9-.7 3.3.3 3.3 1.2 0 2.2-2.8 1.2-3.4-.5-.3-1.1-.3-1.5.1zM283.8 92.7c.7.3 1.6.2 1.9-.1.4-.3-.2-.6-1.3-.5-1.1 0-1.4.3-.6.6zM136 95.9c0 .5.5 1.3 1 1.6.6.3 1 .2 1-.4 0-.5-.4-1.3-1-1.6-.5-.3-1-.2-1 .4zM189 96.1c0 .5.5.7 1 .4.6-.3 1-.8 1-1.1 0-.2-.4-.4-1-.4-.5 0-1 .5-1 1.1zM74 99c0 1.3.5 2 1.3 1.7.6-.2 1.2-1 1.2-1.7s-.6-1.5-1.2-1.8c-.8-.2-1.3.5-1.3 1.8zM225.2 98.2c-1.8 1.8-1.5 2.8.8 2.8 1.3 0 2-.7 2-2 0-2.3-1-2.6-2.8-.8zM233.5 99.1c-1 1.5.1 2.3 2 1.5.9-.3 1.3-1 1-1.6-.8-1.3-2.2-1.3-3 .1zM142.7 99.7c-1.3 1.2-.7 2.3 1.3 2.3 1.1 0 2-.7 2-1.5 0-1.5-2.1-2.1-3.3-.8zM81.2 103c0 1.4.2 1.9.5 1.2.2-.6.2-1.8 0-2.5-.3-.6-.5-.1-.5 1.3zM244.8 108.7c.3 4.3.8 8.6 1.3 9.5.5.9.6 2.3.4 3.1-.3.7.3 2.4 1.3 3.7l1.9 2.4 1.2-2.2c.9-1.7.8-2.3-.9-3.5-1.6-1.1-1.9-2.1-1.4-4.1.3-1.4.2-3.2-.4-3.9-.5-.7-.7-3.4-.3-6.5.4-2.8.4-5.2 0-5.2s-1.3-.2-2.1-.5c-1.1-.4-1.3 1-1 7.2zM177.8 104.6c-2.8 1.5-3.5 2.8-2 3.8 1.1.7 5.5-2.9 5.1-4.2-.3-.7-1.3-.5-3.1.4zM233 105.5c-1 1.3-.9 1.5.9 1.5 1.2 0 2.1-.6 2.1-1.5 0-.8-.4-1.5-.9-1.5s-1.4.7-2.1 1.5zM260.5 106c.3.5.8 1 1.1 1 .2 0 .4-.5.4-1 0-.6-.5-1-1.1-1-.5 0-.7.4-.4 1zM94 107c0 .5.5 1 1 1 .6 0 1-.5 1-1 0-.6-.4-1-1-1-.5 0-1 .4-1 1zM103 108.6c0 .8.5 1.2 1 .9.6-.4.8-1.1.5-1.6-.9-1.4-1.5-1.1-1.5.7zM238.5 108c.3.5.8 1 1.1 1 .2 0 .4-.5.4-1 0-.6-.5-1-1.1-1-.5 0-.7.4-.4 1zM260.1 109.9c-.7 1.3-1.1 3.5-.8 4.9.3 1.4.1 3.5-.5 4.7-1.1 2.6.5 7.5 2.6 7.5 1.9 0 2.6-2 1.4-4.3-.5-1-.7-2.5-.4-3.5.3-.9.2-4-.2-6.7-.8-4.8-.8-4.9-2.1-2.6zM90.7 109.6c-.3.3-.3 1.2 0 2s.1 1.4-.5 1.4c-.5 0-1.2-.7-1.6-1.5-.8-2.1-3-1.9-5.1.5-1.9 2.1-2.1 1.9 4 3.7 7.1 2 11.1-1 6.5-5-2.3-1.9-2.4-2-3.3-1.1zM144.7 110.7c-1 .9-.9 2.3.2 2.3.5 0 1.1-.7 1.5-1.5.5-1.5-.5-2-1.7-.8zM189 111.5c0 .8.4 1.5.9 1.5s1.4-.7 2.1-1.5c1-1.3.9-1.5-.9-1.5-1.2 0-2.1.6-2.1 1.5zM227 111.5c-1 1.2-.9 1.5.8 1.5 1.1 0 2.2-.7 2.6-1.5.3-.9 0-1.5-.8-1.5-.7 0-1.9.7-2.6 1.5zM76 112c0 .5.5 1 1.1 1 .5 0 .7-.5.4-1-.3-.6-.8-1-1.1-1-.2 0-.4.4-.4 1zM234.7 111.7c-1.2 1.1-.8 2.3.8 2.3.8 0 1.5-.7 1.5-1.5 0-1.6-1.2-2-2.3-.8zM126 113.5c0 .9.5 1.5 1.1 1.3.6-.2 1.1-.8 1.1-1.3s-.5-1.1-1.1-1.3c-.6-.2-1.1.4-1.1 1.3zM114.6 113.8c-.3.6-.1 1.4.5 1.7 1.5 1 2.5-.3 1.2-1.6-.7-.7-1.3-.7-1.7-.1zM178.6 115.6c-.9.8-1.6 2.5-1.6 3.7 0 1.1.3 1.7.8 1.1.4-.5 1.8-2.1 3.1-3.7 2-2.1 2.1-2.7.8-2.7-.8 0-2.3.7-3.1 1.6zM207 115c0 .5.5 1 1.1 1 .5 0 .7-.5.4-1-.3-.6-.8-1-1.1-1-.2 0-.4.4-.4 1zM213.2 116.2c.6 1.8 2.8 2.1 2.8.4 0-.9-.7-1.6-1.6-1.6-.9 0-1.4.5-1.2 1.2zM228 117.5c0 .8.7 1.5 1.5 1.5s1.5-.7 1.5-1.5-.7-1.5-1.5-1.5-1.5.7-1.5 1.5zM235.5 118.1c-.4.6-.5 1.3-.2 1.6.7.7 2.7-.6 2.7-1.8 0-1.2-1.7-1.2-2.5.2zM146.7 119.9c-.7 2.7.3 3.4 1.9 1.3 1.7-2.2 1.7-3.2 0-3.2-.7 0-1.6.9-1.9 1.9zM252.7 118.6c-1.4 1.5-.6 3.4 1.4 3.4 1.4 0 1.9-.5 1.7-1.7-.3-1.8-2-2.7-3.1-1.7zM89 121c0 2.3 2.5 2.7 3.3.6.7-1.6-.1-2.6-2-2.6-.7 0-1.3.9-1.3 2zM274 121c-3.8 2.9-1.4 4.5 2.8 1.9 1.7-1.2 3.2-2.5 3.2-3 0-1.5-3.4-.9-6 1.1zM240.1 121.4c-.6.8-2.3 1.7-3.6 2-2.7.7-3.5 4.1-1.2 4.9 1.7.6 4.7-1.1 4.7-2.8 0-.8.8-1.8 1.8-2.4 1.2-.7 1.4-1.3.6-2.1-.8-.8-1.4-.7-2.3.4zM124 122c0 .5.7 1 1.6 1 .8 0 1.2-.5.9-1-.3-.6-1-1-1.6-1-.5 0-.9.4-.9 1zM201.6 122.4c.3.9 1.1 1.6 1.6 1.6 1.3 0 .5-2.3-1-2.8-.7-.2-1 .2-.6 1.2zM208 122c0 .5.5 1 1 1 .6 0 1-.5 1-1 0-.6-.4-1-1-1-.5 0-1 .4-1 1zM214.5 122.1c-1 1.5.3 2.5 1.6 1.2.7-.7.7-1.3.1-1.7-.6-.3-1.4-.1-1.7.5zM181.7 123.7c-3.2.8-5.2 9.3-2.2 9.3.9 0 1.5-.9 1.5-2.3 0-1.6.9-2.8 2.5-3.5 1.4-.6 2.5-1.8 2.5-2.7 0-1.5-.9-1.7-4.3-.8zM229 124c0 .5.5 1 1 1 .6 0 1-.5 1-1 0-.6-.4-1-1-1-.5 0-1 .4-1 1zM79 125.5c0 .8.7 1.5 1.5 1.5s1.5-.7 1.5-1.5-.7-1.5-1.5-1.5-1.5.7-1.5 1.5zM137 125c0 .5.5 1 1 1 .6 0 1-.5 1-1 0-.6-.4-1-1-1-.5 0-1 .4-1 1zM116.5 126.1c-1 1.5.3 2.5 1.6 1.2.7-.7.7-1.3.1-1.7-.6-.3-1.4-.1-1.7.5zM121.7 128.4c-1.5 2.2-1.5 2.5.2 4 1.7 1.6 1.9 1.6 2.5.1.9-2.4.7-6.5-.3-6.5-.5 0-1.6 1.1-2.4 2.4zM203 129.3c0 3.7 2.4 6.7 4.1 5 .6-.6.4-2-.6-4.1-2.3-4.5-3.5-4.8-3.5-.9zM192.4 128.5c-1.8 1.4-1.8 1.4.9 1.5 1.7 0 2.7-.5 2.7-1.5 0-1.9-1.1-1.9-3.6 0zM209.4 128.5c-.4.9-.2 2.1.5 2.8 1.3 1.3 1.8.9 2.3-1.7.4-2.4-2-3.3-2.8-1.1zM241.5 129c-.3.5.1 1 .9 1 .9 0 1.6-.5 1.6-1 0-.6-.4-1-.9-1-.6 0-1.3.4-1.6 1zM149 130.7c0 1.3.5 2.3 1 2.3 1.3 0 1.3-1.1 0-3-.8-1.2-1-1.1-1 .7zM230 130.6c0 .8.5 1.2 1 .9.6-.3 1-1 1-1.6 0-.5-.4-.9-1-.9-.5 0-1 .7-1 1.6zM185.5 130.9c-1 1.7 1.2 2.1 2.5.6 1-1.2 1-1.5-.3-1.5-.9 0-1.8.4-2.2.9zM212 134.5c0 .8.5 1.5 1 1.5.6 0 1-.7 1-1.5s-.4-1.5-1-1.5c-.5 0-1 .7-1 1.5zM108.5 136c-.3.5-.1 1 .4 1 .6 0 1.1-.5 1.1-1 0-.6-.2-1-.4-1-.3 0-.8.4-1.1 1zM118 136.9c-.5 1.1-1 2.4-1 3 0 1.7 2.7 1.3 3.4-.5 1.6-4.1-.4-6.2-2.4-2.5zM187.7 136.2c-1 .5-3.2.6-4.8.3-2.9-.7-3.1-.5-2.4 1.6 1 3.3 1.2 3.4 3.8 2.1 1.2-.6 3.2-1.4 4.5-1.7 2.2-.6 2.9-2 1.4-2.9-.4-.2-1.5 0-2.5.6zM194 136c0 1.2.8 1.2 3.5 0 1.8-.8 1.7-.9-.7-.9-1.6-.1-2.8.3-2.8.9zM113 138c0 .5.5 1 1 1 .6 0 1-.5 1-1 0-.6-.4-1-1-1-.5 0-1 .4-1 1zM150.7 140c-.7 2.8 1.7 11.8 2.7 10.1.5-.7.3-1.8-.3-2.4-1.4-1.4-1.4-5.2-.1-7.8.8-1.5.7-1.9-.3-1.9-.8 0-1.7.9-2 2zM197.3 138.7c-1.8.7-1.6 4.3.2 4.3s3.1-2.8 1.9-3.9c-.5-.5-1.5-.6-2.1-.4zM102.7 140.6c-.4.4-.7 1.8-.7 3.1 0 1.6-.6 2.3-2 2.3-1.1 0-2.3.7-2.6 1.5-.4 1-1.3 1.3-2.4 1-3.1-1-3.3 1.4-.3 2.6 2.3.9 2.5 1.2 1.2 1.9-.9.5-2.2 2.4-2.9 4.1-1.3 2.9-1.2 3.3.9 5 2.7 2.2 4.5 2.5 3.8.5-.5-1.1.1-1.2 2.9-.3 4.2 1.3 4.4 2.7.4 2.7-1.6 0-3 .4-3 .8s1.6 3.2 3.5 6.2 3.5 5.8 3.5 6.2c0 .4.7.8 1.5.8s2.3.9 3.2 2c2.7 3.1 3.9 2.4 6.7-3.4 2.6-5.4 2.6-8.9.1-8-2.2.9-2.8-1.6-.9-3.7 1-1.1 1.9-2.7 2-3.5.3-2.1-3.4-10.7-5-11.6-.8-.4-1.1-1.8-.9-3.2.3-1.3 0-2.7-.6-3-.5-.4-.8-1.3-.5-2 .3-.8 0-1.7-.6-2.1-.7-.4-1.4.2-1.7 1.4-.3 1.2-.8 2.1-1.2 2.1-1.1 0-2.8-1.5-3.2-2.8-.3-.7-.8-1-1.2-.6zm3.8 7c1.3.5 1.1.9-1.1 2-3.1 1.6-3.7 1.4-2.8-1 .7-1.7 1.4-1.9 3.9-1zM490.9 141.2c-.1.7-.2 2.9-.3 4.9l-.3 3.6 2.9-1.4c1.5-.8 2.8-2 2.8-2.6 0-.7.3-2.1.6-3.2.4-1.7 0-2.1-2.5-2.3-1.9-.1-3.1.3-3.2 1zM184.2 145.7c.2 2.1.9 2.9 2.8 3.1 2 .3 2.3.1 1.3-.9-.7-.7-1.3-2.1-1.3-3.1s-.7-1.8-1.6-1.8c-1.1 0-1.4.8-1.2 2.7zM128 145.5c0 .8.5 1.5 1 1.5.6 0 1-.7 1-1.5s-.4-1.5-1-1.5c-.5 0-1 .7-1 1.5zM178 145.4c0 .9.5 1.6 1 1.6.6 0 1-.4 1-.9 0-.6-.4-1.3-1-1.6-.5-.3-1 .1-1 .9zM87.2 150.2c.3.7 1.3 1.5 2.2 1.6 1.2.3 1.7-.1 1.4-1-.3-.7-1.3-1.5-2.2-1.6-1.2-.3-1.7.1-1.4 1zM129.5 151c-.4.6-.3 1.6.3 2.2.6.6 1.2.6 1.7-.2.4-.6.3-1.6-.3-2.2-.6-.6-1.2-.6-1.7.2zM152 152.9c0 .6.4 1.3 1 1.6.6.3.7-.1.4-.9-.7-1.8-1.4-2.1-1.4-.7zM171 156.8c0 .5.7 1.6 1.6 2.3 1.4 1.2 1.6 1.1 1.3-.5-.4-2-2.9-3.5-2.9-1.8zM179.1 158.6c0 1.1.3 1.4.6.6.3-.7.2-1.6-.1-1.9-.3-.4-.6.2-.5 1.3zM130.3 161.5c.1 2.1.6 3.5 1.4 3.5.7 0 1-.6.7-1.3-.3-.8.2-2 1.1-2.7 2.2-1.8 1.9-3-.9-3-2.1 0-2.4.4-2.3 3.5zM205 159c0 .5-.8 1-1.7 1.1-1.2.1-.9.4.7.8 2.7.9 4.6-.1 3.6-1.8-.9-1.4-2.6-1.4-2.6-.1zM166.5 161.1c-.7 1 1 2.8 2.8 2.9 1.2 0 .8-1.7-.7-2.9-1.1-.9-1.6-.9-2.1 0zM152.6 161.9c-.4.7-.5 1.5-.2 1.8.9.9 1.9-.4 1.4-1.8-.4-1.1-.6-1.1-1.2 0zM208.4 162.5c-2 1.5-1.1 1.8 2 .6 1.1-.4 1.5-1 .9-1.4-.5-.3-1.9 0-2.9.8zM213.5 162c-.3.5-.2 1.7.3 2.6.8 1.4 1 1.2 1-.9 0-2.9-.3-3.3-1.3-1.7zM157.8 165.1c-2 1-3.9 2.3-4.3 2.9-1.1 1.7 3.2 1.1 5.1-.7.9-1 2.2-1.8 2.8-1.9 3.2-.3 3.6-.5 3.6-1.4 0-1.5-3-1-7.2 1.1zM202.6 165.5c1 .8 2.3 1.5 2.8 1.5.6 0 .1-.7-1-1.5-1-.8-2.3-1.5-2.8-1.5-.6 0-.1.7 1 1.5zM208.5 166c.3.5 1.5 1 2.6 1s1.7-.5 1.4-1c-.3-.6-1.5-1-2.6-1s-1.7.4-1.4 1zM199.7 167.4c-.4 1-.5 2.1-.2 2.4.9.9 1.7-.6 1.3-2.5-.3-1.7-.4-1.7-1.1.1zM134.1 168.1c-1.8.7-2.2 1.4-1.7 3.2.3 1.2.6 3 .6 3.9 0 1 .5 1.8 1.1 1.8.7 0 .9-.9.5-2.4-.4-1.6 0-2.9 1.4-4.1 3.4-3.1 2.6-4.2-1.9-2.4zM163.8 169.2c-2.1 1.1-3.8 2.4-3.8 2.9 0 1.2 1.3 1.2 2.6 0 .5-.5 2.3-1.1 3.9-1.3 1.8-.2 3-.9 3-1.7 0-2.2-1.6-2.2-5.7.1zM486.3 170.5c0 .9.9 1.5 2.1 1.4 1.2 0 1.5-.3.8-.6-.6-.2-1-.9-.6-1.4.3-.5-.1-.9-.9-.9-.7 0-1.4.7-1.4 1.5zM205.8 172.2c1.7.8 2.6.8 3.4 0 .9-.9.4-1.2-2.2-1.1-3.3 0-3.4.1-1.2 1.1zM153 174.5c0 1 .7 1.5 1.8 1.3 2.1-.4 1.9-2.2-.2-2.6-1-.2-1.6.3-1.6 1.3zM450.3 174.1c-2.4.9-3 2.4-1.3 3.4.5.3 1.9-.3 3.1-1.3 2.4-2.3 1.4-3.4-1.8-2.1zM489.3 176.4c-3 1.4-2.9 2 .3 3.5 3 1.3 2.9 1.4 3.8-1.5.8-2.6-1-3.4-4.1-2zM155 178.4c0 1.6 4.1 2.9 6.5 2 2.7-1.1 1.1-2.9-2.8-3.2-2.7-.2-3.7.2-3.7 1.2zM437 178.5c-1 1.2-1 1.9-.2 2.7.9.9 1.2.8 1.2-.5 0-.9.5-1.7 1-1.7.6 0 1-.5 1-1 0-1.5-1.6-1.2-3 .5zM136 180c0 .5.4 1 .9 1 .6 0 1.3-.5 1.6-1 .3-.6-.1-1-.9-1-.9 0-1.6.4-1.6 1zM221 182c0 .5.5 1 1 1 .6 0 1-.5 1-1 0-.6-.4-1-1-1-.5 0-1 .4-1 1zM135.2 185.1c.2.7 1 1.5 1.7 1.7.8.3 1.2-.1.9-.9-.2-.7-1-1.5-1.7-1.7-.8-.3-1.2.1-.9.9zM245.5 189c-.3.5.1 1 1 1s1.3-.5 1-1c-.3-.6-.8-1-1-1-.2 0-.7.4-1 1zM231.9 193c-.8 2 .2 6.1 1.2 5.4.5-.3.7-1 .4-1.5-.4-.5.1-.9 1-.9s1.3-.5 1-1c-.4-.6-1-.8-1.5-.5-.5.3-1-.3-1.2-1.2-.3-1.4-.5-1.5-.9-.3zM262.5 193c.3.5.8 1 1.1 1 .2 0 .4-.5.4-1 0-.6-.5-1-1.1-1-.5 0-.7.4-.4 1zM275 193c0 .5.5 1 1 1 .6 0 1-.5 1-1 0-.6-.4-1-1-1-.5 0-1 .4-1 1zM304.8 192.7c.7.3 1.6.2 1.9-.1.4-.3-.2-.6-1.3-.5-1.1 0-1.4.3-.6.6zM228.2 195.8c-1.1 2.5-1.1 2.5.4 1 .9-.9 1.5-2.1 1.3-2.7-.2-.6-1 .2-1.7 1.7zM137 195c0 .5.5 1 1 1 .6 0 1-.5 1-1 0-.6-.4-1-1-1-.5 0-1 .4-1 1zM247 195c0 .5.7 1 1.5 1s1.5-.5 1.5-1c0-.6-.7-1-1.5-1s-1.5.4-1.5 1zM290.9 196.3c.5 1.4 1.7 2.2 3 2.1 1.1 0 2.1.3 2.1.8 0 1.1 3.8 1 4.5-.2.3-.6-.3-1-1.4-1-1.1 0-3.6-.9-5.5-2l-3.5-1.9.8 2.2zM138.5 200.1c-.4.6-.3 1.5.3 2.1.6.6 1.1.4 1.5-.6.7-1.8-.9-3.1-1.8-1.5zM230.6 200.9c-.4.5.2.7 1.3.4 1-.3 2.2 0 2.5.6.4.6 1.2 1.1 1.9 1.1 1.4 0-2.4-2.9-4-3-.6 0-1.4.4-1.7.9zM118 203c0 .5.5 1 1.1 1 .5 0 .7-.5.4-1-.3-.6-.8-1-1.1-1-.2 0-.4.4-.4 1zM141 209.6c0 1.7 2.2 1.4 2.8-.4.2-.7-.3-1.2-1.2-1.2-.9 0-1.6.7-1.6 1.6zM123.5 214c-.3.5-.2 1 .4 1 .5 0 1.3-.5 1.6-1 .3-.6.2-1-.4-1-.5 0-1.3.4-1.6 1zM124.5 220c-.3.5.1 1 .9 1s1.8-.5 2.1-1c.3-.6-.1-1-.9-1s-1.8.4-2.1 1zM119.5 223.1c-1 1.5.3 2.5 1.6 1.2.7-.7.7-1.3.1-1.7-.6-.3-1.4-.1-1.7.5zM128.3 224.7c-3.9.5-4.3 1.9-.8 2.6 1.8.3 2.9-.1 3.6-1.4.5-1.1.8-1.8.7-1.7-.2 0-1.8.3-3.5.5zM120.5 230c-.3.5-.1 1 .4 1 .6 0 1.1-.5 1.1-1 0-.6-.2-1-.4-1-.3 0-.8.4-1.1 1zM126.7 230.7c-1.2 1.1-.8 2.3.8 2.3.8 0 1.5-.7 1.5-1.5 0-1.6-1.2-2-2.3-.8zM120.1 235.4c-.8.9-1.1 1.9-.7 2.3.9.9 2.9-1.3 2.4-2.7-.2-.8-.8-.7-1.7.4zM208.5 238.4c-1.1.8-2.4 1.2-3 1-.6-.3-2.5.2-4.1 1.1-1.6.8-3.7 1.5-4.6 1.5-.9 0-1.9.4-2.2.9-.3.5-2.4 1.1-4.5 1.3-2.2.2-3.7 0-3.5-.4.7-1.1-5.7-.1-6.9 1.1-.7.7-.1 1.2 1.6 1.7 1.5.3 2.4 1 2.2 1.5-.3.4-1.7.4-3.1-.1-1.4-.6-3.5-1-4.7-1-1.7.1-1.5.4 1.3 1.7 5.4 2.4 22.2 2.2 24.8-.4.7-.7 2-1.3 2.8-1.3.8 0 1.2-.4.9-1-.3-.5.6-1.2 1.9-1.6 3.5-.8 6.7-7.4 3.6-7.4-.3 0-1.5.6-2.5 1.4zM129 239.1c0 .5.5.7 1 .4.6-.3 1-.8 1-1.1 0-.2-.4-.4-1-.4-.5 0-1 .5-1 1.1zM154.3 238.7c.9.2 2.5.2 3.5 0 .9-.3.1-.5-1.8-.5-1.9 0-2.7.2-1.7.5zM307 239.1c0 .5.4.9.8.9.5 0 2.4 1.3 4.2 3 1.8 1.6 4.1 3 5 3 .9 0 2.1.5 2.8 1.2.8.8 1.2.8 1.2.1 0-.5-1.1-1.8-2.4-2.9-1.4-1-2.3-2.1-2-2.6.3-.4-.6-.8-2-.8s-2.7-.4-3-.9c-.8-1.2-4.6-2.1-4.6-1zM124.2 240.2c-.7.9-.7 1.8.3 3.2 1.7 2.2 3.3 1.4 3.1-1.5-.1-2.6-1.9-3.5-3.4-1.7zM116.5 243.1c-1.1 1.6-.2 1.7 2.5.2 2.4-1.2 2.4-1.3.3-1.3-1.2 0-2.5.5-2.8 1.1zM154.8 243.7c.7.3 1.6.2 1.9-.1.4-.3-.2-.6-1.3-.5-1.1 0-1.4.3-.6.6zM168 245.4c0 .2 1.1.6 2.5.8 1.3.3 2.2.1 1.9-.3-.5-.9-4.4-1.3-4.4-.5zM120.5 247c-.3.5-.2 1 .4 1 .5 0 1.3-.5 1.6-1 .3-.6.2-1-.4-1-.5 0-1.3.4-1.6 1zM122 252.1c0 .5.5.7 1 .4.6-.3 1-.8 1-1.1 0-.2-.4-.4-1-.4-.5 0-1 .5-1 1.1zM149.6 252.5c.4.8.8 1.5 1 1.5.2 0 .4-.7.4-1.5s-.4-1.5-1-1.5c-.5 0-.7.7-.4 1.5zM117.7 253.6c-.8.8.1 2.4 1.4 2.4.5 0 .9-.7.9-1.5 0-1.5-1.2-2-2.3-.9zM251.5 263c-.3.5-.1 1 .4 1 .6 0 1.1-.5 1.1-1 0-.6-.2-1-.4-1-.3 0-.8.4-1.1 1zM252 269.4c0 .2.8 1 1.8 1.7 1.5 1.3 1.6 1.2.3-.4s-2.1-2.1-2.1-1.3zM313.5 271c.3.5.8 1 1.1 1 .2 0 .4-.5.4-1 0-.6-.5-1-1.1-1-.5 0-.7.4-.4 1zM150 283.7c0 1.3.5 2.3 1 2.3 1.3 0 1.3-1.1 0-3-.8-1.2-1-1.1-1 .7zM151.1 289.6c0 1.1.3 1.4.6.6.3-.7.2-1.6-.1-1.9-.3-.4-.6.2-.5 1.3zM152.2 294.4c.2 1.1.9 2.1 1.6 2.4.7.2 1.1-.2 1-1-.2-.7.3-1.2 1-1.1.6.2 1.2-.2 1.2-.7 0-1.3-1.7-1.3-2.6.1-.4.8-.9.7-1.6-.2-.7-1.1-.8-.9-.6.5zM147.5 308.1c-.4.6-2 .7-3.8.3l-3.2-.6 2.4 2.1c1.4 1.2 3.8 2.1 5.6 2.1 2.9 0 3.2-.3 2.7-2.5-.4-2.5-2.6-3.4-3.7-1.4zM172 372.1c0 4.6-8.9 14.2-19.5 21.2-4.5 2.9-13 5.8-26.7 8.9-5.1 1.1-12 2.7-15.3 3.4-3.3.8-10.5 2.3-16 3.3-5.5 1.1-13.1 2.7-16.8 3.5-6.2 1.4-22.6 4.5-49.7 9.2-5.2.9-13.7 2.5-18.7 3.6l-9.3 2V512h80.5c63.7 0 80.5-.3 80.6-1.3.1-.6 0-7.4-.1-15-.1-7.9.2-14.3.8-15 .5-.6 1.3-3.1 1.7-5.4.5-3.5.3-4.3-1.3-5.2-2.6-1.4-4.6-6.5-3.8-9.7.4-1.4 2-3.8 3.6-5.3 2.9-2.6 3-2.9 4-17.6 2.3-33.3 2.9-39.4 4.9-49 1.2-5.5 2.5-11.2 3-12.7.7-1.9.5-3.2-.4-4.5-1.3-1.7-1.4-1.6-1.5.8zm-151.7 82c2.6 1.4 3.8 3 3.1 4.1-.3.5-1.5.1-2.7-.7-4.8-3.4-11.7-.4-11.7 5 0 5.1 6.1 8.1 11.2 5.4 1.3-.7 2.3-.8 3-.1 1.2 1.2-3.9 4.2-7.2 4.2-3.5 0-7.6-2.7-9-5.9-3.4-8.3 5.3-16.2 13.3-12zm25.4 1.1c1.9 1.6 1.2 5.9-1.2 7.2-1.1.6-2.2 1.2-2.4 1.4-.3.1 1.1 1.8 2.9 3.7 2.5 2.6 3 3.5 1.7 3.5-.9 0-3.2-1.7-5.2-3.8l-3.4-3.7-.1 3.7c0 2.7-.4 3.8-1.5 3.8-1.2 0-1.5-1.7-1.5-9.1v-9.2l4.6.7c2.6.3 5.3 1.1 6.1 1.8zm53.7-.1c3.1 2.4 2.5 4.6-.7 2.4-4.8-3.4-11.7-.4-11.7 5 0 5.1 6.1 8.1 11.2 5.4 1.3-.7 2.3-.8 3-.1 1.2 1.2-3.9 4.2-7.2 4.2-8.6 0-13.1-10.1-7.1-16.1 3.6-3.6 8.6-3.9 12.5-.8zm16.6 1.3l.5 2.7 2.9-3c2.7-2.8 5.6-4.1 5.6-2.4 0 .3-1.8 2.2-4 4l-4 3.5 4.1 4.6c4.7 5.4 3.4 7.1-1.7 2.1l-3.4-3.3v3.2c0 2.2-.5 3.2-1.5 3.2-1.2 0-1.5-1.7-1.5-9.1 0-6.8.3-9 1.3-8.7.6.3 1.4 1.7 1.7 3.2zm26.3-2.7c7 1.1 7.2 8.4.2 9.7-3.2.6-3.5 1-3.5 4.1 0 2.4-.5 3.5-1.5 3.5-1.2 0-1.5-1.7-1.5-9 0-9.8-.3-9.4 6.3-8.3zM70.4 462c4.1 9 4.1 9 2.3 9-.8 0-1.9-1.1-2.5-2.5-.9-2-1.9-2.5-4.7-2.5-2.8 0-3.8.5-4.7 2.5-.9 2.1-3.8 3.6-3.8 2 0-1.4 8.1-16.5 8.9-16.5.4 0 2.5 3.6 4.5 8zm-44.5 31.3c2.8 6.5 5.1 12 5.1 12.2 0 .3-.9.5-2 .5-1.3 0-2.6-1.2-3.7-3.5-1.5-3.2-2-3.5-6-3.5-3.9 0-4.4.3-5.7 3.5-1.1 2.7-2.1 3.5-4 3.5-2.4 0-2.4 0 3-12.1 6.4-14.4 6.4-14.3 7.4-13.2.4.4 3.1 6.1 5.9 12.6zm21.4-11.1c2.8 1.4 5.7 6.9 5.7 10.8 0 4.6-2.9 10.1-6 11.7-1.4.7-5.3 1.3-8.7 1.3H32v-12.4c0-9 .3-12.6 1.3-12.9 1.7-.7 11.8.4 14 1.5zm23.8 10l5.4 12.3 1.2-8.5c2-13.7 2.3-15 3.4-15 .6 0 2.9 3.9 5.1 8.7l4.1 8.8 4.4-9.5c3.2-6.8 4.7-9.1 5.2-8 .5.8 1.4 5.8 2 11 .7 5.2 1.5 10.5 1.8 11.8.4 1.8.1 2.2-2.1 2.2-2.3 0-2.6-.4-2.7-3.8-.1-2-.4-5-.8-6.7-.6-2.8-.7-2.7-3.6 3.7-1.7 3.7-3.5 6.8-4 6.8-.6 0-2.6-3-4.4-6.8-1.9-3.7-3.5-6.3-3.7-5.7-.1.5-.5 3.6-.9 6.8l-.6 5.7h-4.3c-3.9 0-4.4-.3-5.9-3.5-1.5-3.1-2.1-3.5-5.7-3.5s-4.2.4-5.7 3.5c-1.2 2.5-2.3 3.5-4 3.5-2.2 0-2.3-.1-1-3.3 5.1-12 10.1-22.7 10.7-22.7.4 0 3.1 5.5 6.1 12.2zm62.8-10.8c1.5.8 3.4 2.2 4.1 3.1 1.2 1.5 1.2 1.9-.5 3.1-1.6 1.2-2.1 1.1-3.7-.6-2.7-2.9-8.2-2.7-11.3.5-5 4.9-1.7 14.5 4.9 14.5 1.4 0 4.1-.8 6.1-1.7 2.8-1.3 3.8-1.4 4.8-.4.9 1 .7 1.7-1.5 3.5-8.2 7.2-21.1 1.2-21.1-9.7 0-10.2 9.6-16.7 18.2-12.3zm11.9 8.6c.3 9.9 1.2 12.3 4.6 11.8 2.6-.4 3.3-3.4 3.5-14.1.1-6.9.3-7.8 1.9-7.5 1.4.3 1.7 1.7 2 9.4.3 10.1-.6 13.6-4.1 15.9-3.1 2-8.3 1-10.4-2.2-1.6-2.5-3.1-18.8-1.9-21.8.3-.9 1.4-1.5 2.3-1.3 1.5.3 1.8 1.7 2.1 9.8z"/><path d="M38 458.5c0 2.3.4 2.6 2.8 2.3 3.8-.4 3.8-4.2 0-4.6-2.4-.3-2.8 0-2.8 2.3zM139 458.5c0 2.6 2.2 3.3 4.9 1.6 1.2-.8 1.2-1.2.2-2.5-2.1-2.6-5.1-2-5.1.9zM64.6 460.5c-.8 2.2-.3 2.8 1.9 2.3 1.4-.3 1.4-.5.2-2.2-1.3-1.8-1.4-1.8-2.1-.1zM18.2 491.5c-1 2.2-.9 2.5.8 2.5 2.1 0 2.6-1.6 1.2-3.8-.6-.9-1.2-.6-2 1.3zM37 493.3v8.6l3.8-.6c5-.7 7.6-3.4 7.6-7.8s-2.8-7.4-7.7-8.2l-3.7-.6v8.6zM63.6 491.6c-.9 2.3-.8 2.4 1.4 2.4 1.1 0 2-.2 2-.4 0-1.2-1.3-3.6-2-3.6-.4 0-1.1.7-1.4 1.6zM303.2 457.5c0 1.6.2 2.2.5 1.2.2-.9.2-2.3 0-3-.3-.6-.5.1-.5 1.8zM313.4 463.5c0 4.9.1 7.1.3 4.8.2-2.3.2-6.4 0-9-.2-2.6-.3-.8-.3 4.2zM163 458c-2.4 2.4-2.6 5.9-.5 8.6 1.4 1.8 1.4 1.7 1.5-1.6 0-1.9.7-4.7 1.4-6.3 1.7-3.2.5-3.6-2.4-.7zM303.3 468c0 2.5.2 3.5.4 2.2.2-1.2.2-3.2 0-4.5-.2-1.2-.4-.2-.4 2.3zM226 470c0 2.4 1.5 2.7 2.4.4.9-2.2.8-2.4-.9-2.4-.8 0-1.5.9-1.5 2zM224.8 477.7c-.9 1-1.3 2.4-1.1 3.1.3.9 1 .4 1.9-1.4 1.7-3.2 1.3-4.1-.8-1.7zM235.7 478.7c-.4.3-.7 1.1-.7 1.7 0 .6.5.5 1.2-.2.6-.6.9-1.4.7-1.7-.3-.3-.9-.2-1.2.2zM212.2 488.3c-2.7 5.2-3.2 7.1-3.1 12.2l.2 6 .6-6.5c.5-4.8 1.5-8 4-12.3 1.8-3.1 2.9-5.7 2.4-5.7-.4 0-2.3 2.8-4.1 6.3zM297.4 494c0 6.9.1 9.7.3 6.3.2-3.5.2-9.1 0-12.5-.2-3.5-.3-.7-.3 6.2zM275 486.7c1.1 2.1 2 5.1 2 6.6 0 4.3-2.9 9.7-6.4 11.8-1.7 1-2.7 1.9-2.3 1.9 1.9 0 6.5-3.4 8.1-6 2.6-4.6 1.7-14.8-1.5-16.8-1.8-1.2-1.8-1.1.1 2.5zM259 487c-4.2 4.2-3.3 11.6 1.7 13.9 2.3 1 2.5 1 1.8-.6-1.6-4.3-1.5-6.9.4-10.1 1.2-1.7 2.8-3.2 3.6-3.2.9 0 1.3-.5 1-1-1.1-1.7-6.4-1.1-8.5 1zM379.2 493.1l.3 8.4 4-.3c5.3-.5 7.5-2.6 7.5-7.2 0-5.2-2.5-8-7.8-8.7l-4.3-.6.3 8.4zM166.2 488c0 1.4.2 1.9.5 1.2.2-.6.2-1.8 0-2.5-.3-.6-.5-.1-.5 1.3zM185.2 488c0 1.4.2 1.9.5 1.2.2-.6.2-1.8 0-2.5-.3-.6-.5-.1-.5 1.3zM195.2 491.8c-1.1 2.5-1.1 2.5.4 1 .9-.9 1.5-2.1 1.3-2.7-.2-.6-1 .2-1.7 1.7zM313.4 491.4c-.9.9-.8 1.7.2 3.1 1.3 1.7 1.4 1.6 1.4-1.3 0-3.6-.1-3.6-1.6-1.8zM305 499.5c0 4.3.3 7.5.7 7.2.7-.7.4-13.9-.3-14.6-.2-.2-.4 3.1-.4 7.4zM284 501.2c0 3.4.3 5.9.6 5.6 1-1 1.2-11.8.3-11.8-.5 0-.9 2.8-.9 6.2zM166.3 501.5c0 2.7.2 3.8.4 2.2.2-1.5.2-3.7 0-5-.2-1.2-.4 0-.4 2.8zM185.3 502.5c0 2.2.2 3 .4 1.7.2-1.2.2-3 0-4-.3-.9-.5.1-.4 2.3z"/></svg>